<?xml version="1.0" encoding="UTF-8"?>
<!-- Created with Inkscape (http://www.inkscape.org/) -->
<svg width="39.948mm" height="31.393mm" version="1.1" viewBox="0 0 39.948 31.393" xmlns="http://www.w3.org/2000/svg" xmlns:cc="http://creativecommons.org/ns#" xmlns:dc="http://purl.org/dc/elements/1.1/" xmlns:rdf="http://www.w3.org/1999/02/22-rdf-syntax-ns#">
 <metadata>
  <rdf:RDF>
   <cc:Work rdf:about="">
    <dc:format>image/svg+xml</dc:format>
    <dc:type rdf:resource="http://purl.org/dc/dcmitype/StillImage"/>
    <dc:title/>
   </cc:Work>
  </rdf:RDF>
 </metadata>
 <path d="m4.8679 19.975c-0.80926 0.2149-1.3298 0.77731-1.503 1.291l-3.1169 6.1504c-0.21045 0.62405-0.12833 2.577 0.22608 3.0694 0.35375 0.49272 0.93391 0.77532 1.5922 0.77532h28.717c0.65796 0 1.2385-0.2826 1.5922-0.77532 0.35408-0.49239 0.43587-2.4453 0.22575-3.069l-3.1169-6.1507c-0.17322-0.514-0.72202-1.0761-1.504-1.2913-8.057 3.1e-5 -15.056 3.44e-4 -23.113 3.44e-4zm25.915 8.8863h-28.717c-0.63668 0-0.99043-0.49372-0.78729-1.0968l3.1169-6.15c0.20414-0.60244 0.89035-1.0962 1.5267-1.0962h21.004c0.63602 0 1.3229 0.49339 1.5264 1.0962l3.1169 6.15c0.20347 0.6031-0.15061 1.0968-0.78629 1.0968v0" stroke="#000" stroke-linecap="round" stroke-linejoin="round" stroke-width=".26458"/>
 <g stroke-width=".26459">
  <path d="m27.222 18.591c1.1968 0.04853 1.9487-0.99607 1.9487-2.1604v-14.4c3.34e-4 -1.0469-0.85146-1.8981-1.8971-1.8981h-21.698c-1.0466 0-1.8977 0.85112-1.8977 1.8981v14.4c0 1.7766 1.0022 2.1409 1.9489 2.1603zm-22.457-16.428c0-0.44684 0.36306-0.8099 0.80956-0.8099h21.698c0.44618 0 0.8099 0.36306 0.8099 0.8099v14.4c0 0.44651-0.36372 0.80956-0.8099 0.80956h-21.698c-0.44617 0-0.80956-0.36306-0.80956-0.80956v-14.4" stroke="#000"/>
  <path d="m30.922 28.326c0.19785-0.07123 0.30678-0.35274 0.1726-0.60523l-3.3674-6.337c-0.13447-0.25304-0.35647-0.47742-0.58114-0.47575l-2.2038-0.01064c-0.28637 0.05106-0.29152 0.2723-0.24636 0.54002l1.7542 6.5293c0.15446 0.32573 0.34894 0.38934 0.59939 0.39474z"/>
  <path d="m6.5411 16.574h19.766c0.60875 0 1.1068-0.49837 1.1068-1.1078v-12.208c0-0.60875-0.49804-1.1071-1.1068-1.1071h-19.766c-0.60908 0-1.1071 0.49837-1.1071 1.1071v12.208c0 0.60942 0.49804 1.1078 1.1071 1.1078z"/>
  <path d="m25.63 28.326c0.19785-0.07123 0.24454-0.3285 0.1726-0.60523l-1.6326-6.281c-0.07209-0.27734-0.35647-0.5339-0.58114-0.53223h-17.372c-0.28637 0.05106-0.70876 0.17823-0.88745 0.50191l-3.1704 6.4454c0.15446 0.32573 0.34894 0.38934 0.59939 0.39474z"/>
 </g>
 <g transform="matrix(.14524 .06144 -.083735 .13478 47.264 28.731)" stroke-linejoin="round" stroke-width="6.3602">
  <path d="m-92.371 2.9745c0.33608 4.6336 1.5796 7.5961 5.0456 11.257 6.526 5.9455 12.989 13.395 14.581 15.888-1.7296-12.011-8.7185-17.306-19.627-27.145zc9.5162 9.8373 16.92 12.14 19.627 27.145 3.3767 2.9012 6.7534 4.9335 10.13 5.9356 3.5513 0.58288 6.9983 0.64437 10.13-0.87055 3.1556-1.4445 6.4258-2.7907 8.1516-5.4608 0.97607-2.1311 2.5199-3.1424 1.2663-8.2307-2.5527-9.4994-7.2641-18.135-17.174-24.692-4.8435-2.4039-9.4585-5.4553-15.512-4.4319-4.0098 1.1587-8.5736 3.0405-12.583 5.4608-1.735 1.3251-3.3987 2.5237-4.0362 5.1442z" fill="none" stroke="#000" stroke-width="5.3849"/>
  <g stroke-linecap="round">
   <path d="m-62.02-2.2884c-6.1432-4.1219-9.7271-4.0819-11.238-4.3528-0.86696 0.30365-1.8915-0.50149-7.1227 1.7807 5.8493 2.0378 7.9602 4.3142 12.188 6.9644z" stroke="#000" stroke-width="5.3849"/>
   <ellipse transform="matrix(.96688 .25523 0 1 0 0)" cx="-79.308" cy="18.31" rx="3.5823" ry="2.4385" stroke="#fff" stroke-width="5.4764"/>
   <ellipse transform="matrix(.96707 .2545 0 1 0 0)" cx="-80.126" cy="19.3" rx="3.2939" ry="2.2357" stroke="#fff" stroke-width="5.4758"/>
   <path d="m-90.59 2.5788c1.9787-3.4171 5.8877-5.657 8.5868-6.3709 3.4217 0.5585 8.4374 4.1194 12.583 6.6479-4.6379 2.5223-8.124 4.6444-13.177 6.6479z" stroke="#000" stroke-width="5.3849"/>
  </g>
 </g>
</svg>
