<?xml version="1.0" encoding="UTF-8" standalone="no"?>
<!-- Created with Inkscape (http://www.inkscape.org/) -->

<svg
   width="180.40184mm"
   height="49.455254mm"
   viewBox="0 0 180.40184 49.455254"
   version="1.1"
   id="svg5"
   inkscape:version="1.2.2 (b0a8486541, 2022-12-01)"
   sodipodi:docname="FDQ.svg"
   inkscape:export-filename="FDQ.png"
   inkscape:export-xdpi="300"
   inkscape:export-ydpi="300"
   xmlns:inkscape="http://www.inkscape.org/namespaces/inkscape"
   xmlns:sodipodi="http://sodipodi.sourceforge.net/DTD/sodipodi-0.dtd"
   xmlns="http://www.w3.org/2000/svg"
   xmlns:svg="http://www.w3.org/2000/svg">
  <sodipodi:namedview
     id="namedview7"
     pagecolor="#ffffff"
     bordercolor="#666666"
     borderopacity="1.0"
     inkscape:showpageshadow="2"
     inkscape:pageopacity="0.0"
     inkscape:pagecheckerboard="0"
     inkscape:deskcolor="#d1d1d1"
     inkscape:document-units="mm"
     showgrid="false"
     inkscape:zoom="1.2614793"
     inkscape:cx="286.96468"
     inkscape:cy="171.22754"
     inkscape:window-width="1920"
     inkscape:window-height="1017"
     inkscape:window-x="0"
     inkscape:window-y="27"
     inkscape:window-maximized="1"
     inkscape:current-layer="layer1" />
  <defs
     id="defs2" />
  <g
     inkscape:label="Ebene 1"
     inkscape:groupmode="layer"
     id="layer1"
     transform="translate(-22.853701,-22.456006)">
    <rect
       style="opacity:1;fill:#ffffff;stroke:none;stroke-width:5.1"
       id="rect431"
       width="180.69699"
       height="49.999996"
       x="22.853701"
       y="22.456005" />
    <rect
       style="fill:#ffa500;fill-opacity:0.412171;stroke:#191970;stroke-width:0.264582"
       id="rect448"
       width="71.357323"
       height="49.116306"
       x="54.24205"
       y="22.588297" />
    <rect
       style="fill:#ff0000;fill-opacity:0.412171;stroke:none;stroke-width:2;stroke-dasharray:none"
       id="rect1306"
       width="25.072113"
       height="28.140835"
       x="100.68325"
       y="43.770424" />
    <rect
       style="fill:#7fff00;fill-opacity:0.412171;stroke:none;stroke-width:2;stroke-dasharray:none"
       id="rect1304"
       width="20.130754"
       height="28.140835"
       x="80.574913"
       y="43.770424" />
    <rect
       style="fill:#00ffff;fill-opacity:0.412171;stroke:none;stroke-width:2;stroke-dasharray:none"
       id="rect1250"
       width="26.646255"
       height="28.140835"
       x="54.116585"
       y="43.770424" />
    <text
       xml:space="preserve"
       style="font-style:normal;font-weight:normal;font-size:10.5833px;line-height:1.25;font-family:sans-serif;fill:#000000;fill-opacity:1;stroke:none;stroke-width:0.264583"
       x="21.892523"
       y="56.201141"
       id="text236"><tspan
         sodipodi:role="line"
         id="tspan234"
         style="stroke-width:0.264583"
         x="21.892523"
         y="56.201141">http://www.ibb.com/foerderung/...</tspan></text>
    <text
       xml:space="preserve"
       style="font-style:normal;font-weight:normal;font-size:10.5833px;line-height:1.25;font-family:sans-serif;fill:#fffafa;fill-opacity:1;stroke:#000000;stroke-width:0.264583"
       x="79.968155"
       y="33.675304"
       id="text452"><tspan
         sodipodi:role="line"
         id="tspan450"
         style="fill:#fffafa;stroke:#000000;stroke-width:0.264583"
         x="79.968155"
         y="33.675304">FQD</tspan></text>
    <path
       style="color:#000000;fill:#000000;-inkscape-stroke:none"
       d="m 58.647395,41.324219 c -3.011755,1.889662 -3.34685,4.683828 -4.233333,7.291667 1.27431,-1.876291 1.963507,-4.233333 4.233333,-5.291667 h 30.845771 30.316604 c 2.37931,0.891927 3.38038,4.222684 4.7625,6.879167 -1.13636,-2.959723 -0.66844,-5.919445 -4.7625,-8.879167 H 91.157718 c -1.432775,-0.685344 -1.250675,-1.732319 -1.664552,-2.645833 -0.102462,1.052243 -0.382591,2.037606 -1.664552,2.645833 z"
       id="path508"
       sodipodi:nodetypes="ccccccccccc" />
    <path
       style="color:#000000;fill:#000000;stroke-width:1;-inkscape-stroke:none"
       d="m 56.014042,61.084262 c -1.138287,-0.714194 -1.264936,-1.770244 -1.59998,-2.755872 0.481623,0.709141 0.742103,1.599981 1.59998,1.999976 h 11.658102 11.458105 c 0.899256,-0.337102 1.277609,-1.595956 1.799978,-2.599969 -0.429485,1.118622 -0.252635,2.237244 -1.799978,3.355865 h -10.82899 c -0.541515,0.259025 -0.472691,0.654727 -0.629115,0.999988 -0.03872,-0.397693 -0.144599,-0.770109 -0.629114,-0.999988 z"
       id="path1164"
       sodipodi:nodetypes="ccccccccccc" />
    <path
       style="color:#000000;fill:#000000;stroke-width:1;-inkscape-stroke:none"
       d="m 82.087431,61.084262 c -0.864421,-0.714194 -0.960599,-1.770244 -1.215034,-2.755872 0.365747,0.709141 0.563557,1.599981 1.215034,1.999976 h 8.853223 8.701349 c 0.682897,-0.337102 0.970227,-1.595956 1.366907,-2.599969 -0.32615,1.118622 -0.19185,2.237244 -1.366907,3.355865 h -8.223596 c -0.411229,0.259025 -0.358964,0.654727 -0.477753,0.999988 -0.0294,-0.397693 -0.109809,-0.770109 -0.477752,-0.999988 z"
       id="path1166"
       sodipodi:nodetypes="ccccccccccc" />
    <path
       style="color:#000000;fill:#000000;stroke-width:1;-inkscape-stroke:none"
       d="m 102.43126,61.084262 c -1.03196,-0.714194 -1.14678,-1.770244 -1.45054,-2.755872 0.43664,0.709141 0.6728,1.599981 1.45054,1.999976 h 10.56921 10.3879 c 0.81526,-0.337102 1.15828,-1.595956 1.63185,-2.599969 -0.38936,1.118622 -0.22903,2.237244 -1.63185,3.355865 h -9.81754 c -0.49094,0.259025 -0.42854,0.654727 -0.57036,0.999988 -0.0351,-0.397693 -0.13109,-0.770109 -0.57035,-0.999988 z"
       id="path1168"
       sodipodi:nodetypes="ccccccccccc" />
    <text
       xml:space="preserve"
       style="font-size:5.05506px;line-height:1.25;font-family:sans-serif;text-align:center;text-anchor:middle;stroke-width:0.264583"
       x="67.461967"
       y="67.867119"
       id="text1172"><tspan
         sodipodi:role="line"
         id="tspan1170"
         style="stroke-width:0.264583"
         x="67.461967"
         y="67.867119">Hostname</tspan></text>
    <text
       xml:space="preserve"
       style="font-size:5.05506px;line-height:1.25;font-family:sans-serif;text-align:center;text-anchor:middle;stroke-width:0.264583"
       x="90.745293"
       y="67.867119"
       id="text1176"><tspan
         sodipodi:role="line"
         id="tspan1174"
         style="stroke-width:0.264583"
         x="90.745293"
         y="67.867119">Domain</tspan></text>
    <text
       xml:space="preserve"
       style="font-size:5.05506px;line-height:1.25;font-family:sans-serif;text-align:center;text-anchor:middle;stroke-width:0.264583"
       x="112.97028"
       y="67.867119"
       id="text1196"><tspan
         sodipodi:role="line"
         id="tspan1194"
         style="stroke-width:0.264583"
         x="112.97028"
         y="67.867119">TLD</tspan></text>
  </g>
</svg>
