<?xml version="1.0" encoding="UTF-8" standalone="no"?>
<!-- Created with Inkscape (http://www.inkscape.org/) -->

<svg
   width="159.55518mm"
   height="75.269508mm"
   viewBox="0 0 159.55518 75.269508"
   version="1.1"
   id="svg5"
   sodipodi:docname="Frequenz.svg"
   inkscape:version="1.2.1 (8a69933317, 2022-10-28, custom)"
   xmlns:inkscape="http://www.inkscape.org/namespaces/inkscape"
   xmlns:sodipodi="http://sodipodi.sourceforge.net/DTD/sodipodi-0.dtd"
   xmlns="http://www.w3.org/2000/svg"
   xmlns:svg="http://www.w3.org/2000/svg">
  <sodipodi:namedview
     id="namedview7"
     pagecolor="#505050"
     bordercolor="#ffffff"
     borderopacity="1"
     inkscape:showpageshadow="0"
     inkscape:pageopacity="0"
     inkscape:pagecheckerboard="1"
     inkscape:deskcolor="#505050"
     inkscape:document-units="mm"
     showgrid="false"
     inkscape:zoom="1.773243"
     inkscape:cx="234.88039"
     inkscape:cy="125.19435"
     inkscape:window-width="1920"
     inkscape:window-height="1017"
     inkscape:window-x="0"
     inkscape:window-y="27"
     inkscape:window-maximized="1"
     inkscape:current-layer="layer1" />
  <defs
     id="defs2" />
  <g
     inkscape:label="Ebene 1"
     inkscape:groupmode="layer"
     id="layer1"
     transform="translate(-25.579675,-38.686261)">
    <rect
       style="fill:#ffffff;stroke:#a51d2d;stroke-width:0.391767;stroke-linecap:round;stroke-linejoin:round"
       id="rect395"
       width="159.16341"
       height="74.448685"
       x="25.775558"
       y="38.882145" />
    <path
       style="fill:none;stroke:#000000;stroke-width:0.529167;stroke-linecap:butt;stroke-linejoin:miter;stroke-dasharray:none;stroke-opacity:1"
       d="m 27.064558,48.897378 c 11.235776,0 14.996954,21.166667 26.23273,21.166667 11.235776,0 14.996954,-21.166667 26.232729,-21.166667 11.235775,0 14.996953,21.166667 26.232733,21.166667 11.23578,0 14.99695,-21.166667 26.23273,-21.166667 11.23578,0 14.99695,21.166667 26.23273,21.166667 11.23578,0 14.99695,-21.166667 26.23273,-21.166667"
       id="path245"
       sodipodi:nodetypes="czzzzzc" />
    <g
       id="g1212"
       transform="matrix(0.97583105,0,0,1.0332253,0.65099835,-3.7581877)"
       style="stroke-width:0.995901">
      <g
         id="g1147"
         transform="translate(5.1624265,-36.594563)"
         style="stroke-width:0.995901">
        <path
           style="fill:none;stroke:#000000;stroke-width:0.526997;stroke-linecap:butt;stroke-linejoin:miter;stroke-dasharray:none;stroke-opacity:1"
           d="m 21.772892,128.2724 c 2.308091,0 3.080725,21.16668 5.388816,21.16668 2.308091,0 3.080725,-21.16668 5.388816,-21.16668 2.308092,0 3.080726,21.16668 5.388818,21.16668 2.308092,0 3.080724,-21.16668 5.388816,-21.16668 2.308092,0 3.080725,21.16668 5.388817,21.16668 2.308092,0 3.080724,-21.16668 5.388816,-21.16668"
           id="path1133"
           sodipodi:nodetypes="czzzzzc" />
        <path
           style="fill:none;stroke:#000000;stroke-width:0.526997;stroke-linecap:butt;stroke-linejoin:miter;stroke-dasharray:none;stroke-opacity:1"
           d="m 54.105791,128.2724 c 2.308091,0 3.080725,21.16668 5.388816,21.16668 2.308091,0 3.080725,-21.16668 5.388816,-21.16668 2.308092,0 3.080726,21.16668 5.388818,21.16668 2.308092,0 3.080724,-21.16668 5.388816,-21.16668 2.308092,0 3.080725,21.16668 5.388817,21.16668 2.308092,0 3.080724,-21.16668 5.388816,-21.16668"
           id="path1135"
           sodipodi:nodetypes="czzzzzc" />
      </g>
      <path
         style="fill:none;stroke:#000000;stroke-width:0.526997;stroke-linecap:butt;stroke-linejoin:miter;stroke-dasharray:none;stroke-opacity:1"
         d="m 156.26692,91.677837 c 2.30809,0 3.08073,21.166683 5.38882,21.166683 2.30809,0 3.08072,-21.166683 5.38881,-21.166683 2.3081,0 3.08073,21.166683 5.38882,21.166683 2.30809,0 3.08073,-21.166683 5.38882,-21.166683 2.30809,0 3.08072,21.166683 5.38881,21.166683 2.3081,0 3.08073,-21.166683 5.38882,-21.166683"
         id="path1157"
         sodipodi:nodetypes="czzzzzc" />
      <g
         id="g1167"
         transform="translate(64.536561,-36.594563)"
         style="stroke-width:0.995901">
        <path
           style="fill:none;stroke:#000000;stroke-width:0.526997;stroke-linecap:butt;stroke-linejoin:miter;stroke-dasharray:none;stroke-opacity:1"
           d="m 59.397458,128.2724 c 2.308091,0 3.080725,21.16668 5.388816,21.16668 2.308091,0 3.080725,-21.16668 5.388816,-21.16668 2.308092,0 3.080726,21.16668 5.388818,21.16668 2.308092,0 3.080724,-21.16668 5.388816,-21.16668 2.308092,0 3.080725,21.16668 5.388817,21.16668 2.308092,0 3.080724,-21.16668 5.388816,-21.16668"
           id="path1163"
           sodipodi:nodetypes="czzzzzc" />
        <path
           style="fill:none;stroke:#000000;stroke-width:0.526997;stroke-linecap:butt;stroke-linejoin:miter;stroke-dasharray:none;stroke-opacity:1"
           d="m 27.064559,128.2724 c 2.308091,0 3.080725,21.16668 5.388816,21.16668 2.308091,0 3.080725,-21.16668 5.388816,-21.16668 2.308092,0 3.080726,21.16668 5.388818,21.16668 2.308092,0 3.080724,-21.16668 5.388816,-21.16668 2.308092,0 3.080725,21.16668 5.388817,21.16668 2.308092,0 3.080724,-21.16668 5.388816,-21.16668"
           id="path1165"
           sodipodi:nodetypes="czzzzzc" />
      </g>
    </g>
    <path
       id="rect1214"
       style="fill:none;stroke:#000000;stroke-width:0.391767;stroke-linecap:round;stroke-linejoin:round"
       d="M 26.586538,113.75989 V 38.882145"
       sodipodi:nodetypes="cc" />
    <path
       style="fill:none;stroke:#000000;stroke-width:0.264583px;stroke-linecap:butt;stroke-linejoin:miter;stroke-opacity:1"
       d="M 26.222626,59.480712 H 184.51481"
       id="path1217" />
    <path
       style="fill:none;stroke:#000000;stroke-width:0.264583px;stroke-linecap:butt;stroke-linejoin:miter;stroke-opacity:1"
       d="M 26.222626,101.90065 H 184.51481"
       id="path1219" />
    <text
       xml:space="preserve"
       style="font-size:3.52777px;line-height:0;font-family:'Source Sans Pro';-inkscape-font-specification:'Source Sans Pro';text-align:center;letter-spacing:0px;word-spacing:0px;writing-mode:lr-tb;text-anchor:middle;stroke-width:0.264583"
       x="105.26994"
       y="43.688782"
       id="text1275"><tspan
         sodipodi:role="line"
         id="tspan1273"
         style="stroke-width:0.264583"
         x="105.26994"
         y="43.688782">niedrige Frequenz</tspan></text>
    <text
       xml:space="preserve"
       style="font-size:3.52777px;line-height:0;font-family:'Source Sans Pro';-inkscape-font-specification:'Source Sans Pro';text-align:center;letter-spacing:0px;word-spacing:0px;writing-mode:lr-tb;text-anchor:middle;stroke-width:0.264583"
       x="105.26994"
       y="86.02211"
       id="text1329"><tspan
         sodipodi:role="line"
         id="tspan1327"
         style="stroke-width:0.264583"
         x="105.26994"
         y="86.02211">hohe Frequenz</tspan></text>
  </g>
</svg>
