<?xml version="1.0" encoding="UTF-8"?>
<!-- Created with Inkscape (http://www.inkscape.org/) -->
<svg width="1920" height="1024" version="1.1" viewBox="0 0 508 270.93" xmlns="http://www.w3.org/2000/svg" xmlns:cc="http://creativecommons.org/ns#" xmlns:dc="http://purl.org/dc/elements/1.1/" xmlns:rdf="http://www.w3.org/1999/02/22-rdf-syntax-ns#">
 <metadata>
  <rdf:RDF>
   <cc:Work rdf:about="">
    <dc:format>image/svg+xml</dc:format>
    <dc:type rdf:resource="http://purl.org/dc/dcmitype/StillImage"/>
    <dc:title/>
   </cc:Work>
  </rdf:RDF>
 </metadata>
 <g transform="translate(-1.5145 1.5145)">
  <path d="m367.16 133.95a111.64 111.64 0 1 1-223.29 0 111.64 111.64 0 1 1 223.29 0z" fill="#fff" stroke="#7b68ee" stroke-width="1.782"/>
  <path d="m202.56 36.768c8.4852-7.384 20.01-9.3564 30.73-10.773 5.9043-3.1666 11.71 1.2265 14.619 3.0232 2.5892-5.3675 11.309 2.2766 10.46-5.4957 4.8145-1.5131 7.475 7.4993 12.63 2.6806 5.8589 5.6298-9.3907 7.3645-6.4592 11.454 8.7884-0.98901 13.249 6.657 20.36 9.362-3.2855-5.4663-0.43814-5.6848-2.0038-8.0347-3.1529-4.7294-7.5036-7.6135 1.794-5.3891 10.655 5.9458 5.9826-2.3469 18.89 7.9418 3.8383-0.54692 5.3417 3.0313 5.2368 5.2051-0.0831 1.7357-1.174 3.2419-5.2368 0.79913-5.4633 3.8957-5.6383 6.7876-1.0602 2.1194 4.498 0.04449 4.5701 8.8389 9.8822 3.8937-0.13252 1.4924-0.90494 3.3815-1.9266 3.8353-1.3431 0.59736-3.1173-0.46484-4.4426 0.0089-1.5874 0.5677-1.9246 1.7931-2.4528 4.9778-3.6701 0.90494-5.2032 2.8771-5.0846 5.5146 0.19089 4.229 3.058 9.5826-3.6268 10.573-7.7212 3.8086 7.6254 17.748 0.23341 17.468-4.6285-4.6819-5.855-11.883-13.991-10.154-3.5734-0.62408-4.3397 5.4455-9.3629 1.7199-10.304-0.61913-12.762 12.474-8.4353 19.383 2.8059 9.004 14.23 3.4378 15.731-2.606 13.792-2.1719-5.5532 17.091 9.3481 14.262 9.6933-0.66658 1.0553 16.673 13.4 14.405 7.293 0.88713 15.018-14.521 21.806-4.5603 3.8492-0.96725 8.2384-2.2392 11.68-0.77438 3.9818 1.6952 6.9498 6.3761 10.422 8.5678 11.463-0.90098 2.5189 14.534 13.688 13.531 11.717-1.2244 3.2894 11.567 2.5912 17.696-2.9878 8.9317-6.7281 17.691-11.774 25.664-9.2028 4.3308-13.101 15.042-20.488 21.547-9.0574 2.6455-15.08 10.694-23.072 15.124-4.4743 4.0757-13.612 11.096-17.9 9.6556 4.136-7.5362 9.2819-13.677 14.26-20.835 3.8572-8.7033 17.22-20.301 11.299-29.29-9.4539-4.418-9.8347-17.214-15.915-24.895 3.9986-3.9085-0.60427-11.162 6.6026-14.753 3.5239-2.9966 3.7997-17.683-3.4408-13.079-10.393-2.3252-15.005-14.109-25.877-14.825-6.8054-6.033-16.884-3.071-25.18-8.7923-7.9694-3.5348-7.2207-14.901-14.663-19.622-1.8158-2.3984-6.3533-12.733-7.8419-7.2604 0.5489 3.9886 11.324 18.975 2.8255 10.243-5.7293-7.9279-8.6628-17.424-13.775-25.786-4.5123-7.4928 4.2874-13.655 2.8255-20.486 4.944-0.90693-4.4882-8.3988-3.3201-13.281-3.6095-5.0677-4.2633 0.50638-8.6893-0.84759-0.34132 3.7602-3.309 2.1738-5.2985 0.88318z" fill="#7b68ee" fill-rule="evenodd" stroke-width="1.8538"/>
 </g>
 <ellipse cx="254" cy="135.46" rx="210.51" ry="113.89" fill="none" stroke="#7b68ee" stroke-linecap="round" stroke-linejoin="round" stroke-width="1.782"/>
</svg>
