<?xml version="1.0" encoding="UTF-8"?>
<!-- Created with Inkscape (http://www.inkscape.org/) -->
<svg width="32.582mm" height="29.012mm" version="1.1" viewBox="0 0 32.582 29.012" xmlns="http://www.w3.org/2000/svg" xmlns:cc="http://creativecommons.org/ns#" xmlns:dc="http://purl.org/dc/elements/1.1/" xmlns:rdf="http://www.w3.org/1999/02/22-rdf-syntax-ns#">
 <metadata>
  <rdf:RDF>
   <cc:Work rdf:about="">
    <dc:format>image/svg+xml</dc:format>
    <dc:type rdf:resource="http://purl.org/dc/dcmitype/StillImage"/>
    <dc:title/>
   </cc:Work>
  </rdf:RDF>
 </metadata>
 <g transform="translate(-29.244 -83.394)">
  <g transform="matrix(.33247 0 0 .33247 28.912 81.732)" stroke-width=".79583">
   <g stroke-width=".79583">
    <path d="m98.656 80.699-9.375-18.5c-0.521-1.546-1.59-2.9-2.932-3.884 1.209-1.048 1.988-2.574 1.988-4.294v-43.312c1e-3 -3.149-2.561-5.709-5.706-5.709h-65.264c-3.148 0-5.708 2.56-5.708 5.709v43.312c0 1.721 0.782 3.248 1.989 4.295-1.34 0.983-2.408 2.338-2.929 3.883l-9.375 18.499c-0.633 1.877-0.386 7.751 0.68 9.232 1.064 1.482 2.809 2.332 4.789 2.332h86.375c1.979 0 3.725-0.85 4.789-2.332 1.065-1.481 1.311-7.355 0.679-9.231zm-5.468 4.345h-86.376c-1.915 0-2.979-1.485-2.368-3.299l9.375-18.498c0.614-1.812 2.678-3.297 4.592-3.297h63.176c1.913 0 3.979 1.484 4.591 3.297l9.375 18.498c0.612 1.814-0.453 3.299-2.365 3.299zm-78.256-74.335c0-1.344 1.092-2.436 2.435-2.436h65.264c1.342 0 2.436 1.092 2.436 2.436v43.312c0 1.343-1.094 2.435-2.436 2.435h-65.264c-1.342 0-2.435-1.092-2.435-2.435z"/>
    <path d="m61.964 72.913c-0.12-0.828-0.937-1.478-1.855-1.478h-20.22c-0.92 0-1.736 0.649-1.855 1.479l-1.656 6.943c-0.062 0.426 0.076 0.852 0.38 1.165 0.302 0.313 0.748 0.494 1.224 0.494h24.032c0.477 0 0.924-0.181 1.225-0.494 0.304-0.313 0.441-0.739 0.379-1.165z"/>
    <path d="m20.273 54.055h59.453c1.831 0 3.329-1.499 3.329-3.332v-36.718c0-1.831-1.498-3.33-3.329-3.33h-59.453c-1.832 0-3.33 1.499-3.33 3.33v36.718c0 1.833 1.498 3.332 3.33 3.332z"/>
   </g>
  </g>
 </g>
</svg>
