<?xml version="1.0" encoding="UTF-8"?>
<!-- Created with Inkscape (http://www.inkscape.org/) -->
<svg width="1920" height="1024" version="1.1" viewBox="0 0 508 270.93" xmlns="http://www.w3.org/2000/svg" xmlns:cc="http://creativecommons.org/ns#" xmlns:dc="http://purl.org/dc/elements/1.1/" xmlns:rdf="http://www.w3.org/1999/02/22-rdf-syntax-ns#" xmlns:xlink="http://www.w3.org/1999/xlink">
 <metadata>
  <rdf:RDF>
   <cc:Work rdf:about="">
    <dc:format>image/svg+xml</dc:format>
    <dc:type rdf:resource="http://purl.org/dc/dcmitype/StillImage"/>
    <dc:title/>
   </cc:Work>
  </rdf:RDF>
 </metadata>
 <g display="none">
  <g transform="translate(0 -26.067)">
   <g fill="none" stroke="#ffa500" stroke-linecap="round" stroke-linejoin="round">
    <ellipse cx="254" cy="158.36" rx="245.05" ry="123.34" stroke-width=".84667"/>
    <g stroke-width=".84667">
     <rect x="147.56" y="109.92" width="69.666" height="160.1"/>
     <rect x="219" y="70.115" width="69.666" height="199.91"/>
     <rect x="290.43" y="111.22" width="69.666" height="158.8"/>
     <path d="m290.77 215.45 34.833-13.276 34.833 13.276v54.576h-69.666z"/>
     <path d="m147.9 215.45 34.833-13.276 34.833 13.276v54.576h-69.666z"/>
    </g>
   </g>
   <text x="253.72003" y="63.22731" fill="#ff8c00" font-family="'Alegreya Sans'" font-size="19.756px" font-weight="500" letter-spacing="0px" stroke-width=".26458" text-align="center" text-anchor="middle" word-spacing="0px" style="font-variant-caps:normal;font-variant-ligatures:normal;font-variant-numeric:normal;line-height:1.25" xml:space="preserve"><tspan x="253.72003" y="63.22731" stroke-width=".26458"><tspan fill="#ff8c00" font-family="'Alegreya Sans'" font-weight="800">M</tspan>etropilitan <tspan fill="#ff8c00" font-family="'Alegreya Sans'" font-weight="800">A</tspan>rea <tspan fill="#ff8c00" font-family="'Alegreya Sans'" font-weight="800">N</tspan>etwork</tspan></text>
  </g>
 </g>
 <g transform="translate(0 -26.067)" display="none">
  <g transform="translate(21.635)" stroke="#008000">
   <ellipse cx="232.36" cy="227.77" rx="86.542" ry="54.089" fill="#fff" stroke-linecap="round" stroke-linejoin="round" stroke-width=".84667"/>
   <text x="231.90807" y="203.53493" fill="#008000" font-family="'Alegreya Sans'" font-size="6.9166px" font-weight="500" letter-spacing="0px" stroke-width=".26458" text-align="center" text-anchor="middle" word-spacing="0px" style="font-variant-caps:normal;font-variant-ligatures:normal;font-variant-numeric:normal;line-height:1.25" xml:space="preserve"><tspan x="231.90807" y="203.53493" stroke-width=".26458" text-align="center"><tspan fill="#008000" font-family="'Alegreya Sans'" font-size="11.289px" font-weight="800" stroke="#008000" text-align="center" text-anchor="middle">L</tspan>ocal <tspan fill="#008000" font-family="'Alegreya Sans'" font-size="11.289px" font-weight="800" stroke="#008000" text-align="center" text-anchor="middle">A</tspan>rea <tspan fill="#008000" font-family="'Alegreya Sans'" font-size="11.289px" font-weight="800" stroke="#008000" text-align="center" text-anchor="middle">N</tspan>etwork</tspan></text>
   <path d="m182.39 192.91 49.978-19.05 49.978 19.05v78.312h-99.956z" fill="none" stroke-linecap="round" stroke-linejoin="round" stroke-width=".84667"/>
  </g>
 </g>
 <g>
  <g transform="translate(22.934 -26.067)">
   <path id="path841" d="m262.65 252.21a31.588 28.775 0 0 1-31.588 28.775 31.588 28.775 0 0 1-31.588-28.775 31.588 28.775 0 0 1 31.588-28.775 31.588 28.775 0 0 1 31.588 28.775z" fill="#fff" stroke="#1e90ff" stroke-linecap="round" stroke-linejoin="round" stroke-width=".84667"/>
   <g fill="#1e90ff" stroke="#1e90ff">
    <path d="m234.06 235.27c0 2.2569-1.2469 5.0293-2.785 5.0293s-2.785-2.7724-2.785-5.0293c0-2.2569 1.2469-3.3321 2.785-3.3321s2.785 1.0752 2.785 3.3321z" stroke-linecap="round" stroke-linejoin="round" stroke-width=".84667"/>
    <g transform="matrix(.4837 0 0 .48383 139.07 148.12)" stroke-width=".54693px">
     <path d="m156.41 199.66-5.6333 3.645 0.82843 0.74558 4.225-1.9054-1.8225 0.9941 0.41421 0.74558 3.5622-1.4912z"/>
     <path d="m225.47 197.91-1.7308 6.4906-24.711-4.3271 2.6431 28.991h-4.95v27.261h-12.001v-27.261h-4.95l1.0556-28.991-23.124 4.3271-1.7308-6.4906 34.75-9.9523z"/>
     <path d="m224.82 199.66 5.6333 3.645-0.82843 0.74558-4.225-1.9054 1.8225 0.9941-0.41421 0.74558-3.5622-1.4912z"/>
    </g>
    <text transform="matrix(.87832 0 0 .87832 28.418 33.117)" y="0.52916664" font-family="'Alegreya Sans'" font-size="6.9166px" font-weight="500" letter-spacing="0px" stroke-width=".30124" word-spacing="0px" style="font-variant-caps:normal;font-variant-ligatures:normal;font-variant-numeric:normal;line-height:1.25" xml:space="preserve"><textPath startOffset="57.999998%" fill="#1e90ff" stroke="#1e90ff" stroke-width=".30124" xlink:href="#path841"><tspan stroke-width=".30124"><tspan fill="#1e90ff" font-family="'Alegreya Sans'" font-weight="800" stroke="#1e90ff" stroke-width=".30124">P</tspan>ersonal <tspan fill="#1e90ff" font-family="'Alegreya Sans'" font-weight="800" stroke="#1e90ff">A</tspan>rea <tspan fill="#1e90ff" font-family="'Alegreya Sans'" font-weight="800" stroke="#1e90ff">N</tspan>etwork</tspan></textPath></text>
   </g>
  </g>
 </g>
</svg>
