<?xml version="1.0" encoding="UTF-8" standalone="no"?>
<!-- Created with Inkscape (http://www.inkscape.org/) -->

<svg
   width="39.948mm"
   height="31.393mm"
   version="1.1"
   viewBox="0 0 39.948 31.393"
   id="svg46"
   sodipodi:docname="Peer-to-Peer.svg"
   inkscape:version="1.2.1 (8a69933317, 2022-10-28, custom)"
   xmlns:inkscape="http://www.inkscape.org/namespaces/inkscape"
   xmlns:sodipodi="http://sodipodi.sourceforge.net/DTD/sodipodi-0.dtd"
   xmlns="http://www.w3.org/2000/svg"
   xmlns:svg="http://www.w3.org/2000/svg"
   xmlns:rdf="http://www.w3.org/1999/02/22-rdf-syntax-ns#"
   xmlns:cc="http://creativecommons.org/ns#"
   xmlns:dc="http://purl.org/dc/elements/1.1/">
  <defs
     id="defs50" />
  <sodipodi:namedview
     id="namedview48"
     pagecolor="#505050"
     bordercolor="#ffffff"
     borderopacity="1"
     inkscape:showpageshadow="0"
     inkscape:pageopacity="0"
     inkscape:pagecheckerboard="1"
     inkscape:deskcolor="#505050"
     inkscape:document-units="mm"
     showgrid="false"
     inkscape:zoom="26.228246"
     inkscape:cx="23.009544"
     inkscape:cy="60.964808"
     inkscape:window-width="1920"
     inkscape:window-height="1017"
     inkscape:window-x="0"
     inkscape:window-y="27"
     inkscape:window-maximized="1"
     inkscape:current-layer="svg46" />
  <metadata
     id="metadata18">
    <rdf:RDF>
      <cc:Work
         rdf:about="">
        <dc:format>image/svg+xml</dc:format>
        <dc:type
           rdf:resource="http://purl.org/dc/dcmitype/StillImage" />
      </cc:Work>
    </rdf:RDF>
  </metadata>
  <path
     style="fill:none;stroke:#000000;stroke-width:0.185208;stroke-linecap:butt;stroke-linejoin:miter;stroke-dasharray:none;stroke-opacity:1"
     d="m 5.8095281,15.766556 c 0,0 0.1790194,-0.110794 0.4315182,-0.08309 0.2524988,0.0277 0.532972,0.01792 0.6448697,-0.132028 0.1297602,-0.173881 -0.1817787,-0.311346 -0.1178731,-0.454062 0.1205238,-0.269158 0.5358262,-0.329117 0.7868683,-0.404457"
     id="path1443"
     sodipodi:nodetypes="cssac" />
  <path
     style="fill:#ffffff;stroke:none;stroke-width:0.264583px;stroke-linecap:butt;stroke-linejoin:miter;stroke-opacity:1"
     d="m 2.7737578,15.707093 3.0868352,-0.01469 0.4962221,1.141705 -4.0653275,0.0076 z"
     id="path1541" />
  <g
     id="g346"
     transform="matrix(0.12899889,0,0,0.12899889,2.2014208,13.069479)">
    <path
       d="m 4.8679,19.975 c -0.80926,0.2149 -1.3298,0.77731 -1.503,1.291 L 0.248,27.4164 c -0.21045,0.62405 -0.12833,2.577 0.22608,3.0694 0.35375,0.49272 0.93391,0.77532 1.5922,0.77532 h 28.717 c 0.65796,0 1.2385,-0.2826 1.5922,-0.77532 0.35408,-0.49239 0.43587,-2.4453 0.22575,-3.069 l -3.1169,-6.1507 c -0.17322,-0.514 -0.72202,-1.0761 -1.504,-1.2913 -8.057,3.1e-5 -15.056,3.44e-4 -23.113,3.44e-4 z m 25.915,8.8863 H 2.0659 c -0.63668,0 -0.99043,-0.49372 -0.78729,-1.0968 l 3.1169,-6.15 c 0.20414,-0.60244 0.89035,-1.0962 1.5267,-1.0962 h 21.004 c 0.63602,0 1.3229,0.49339 1.5264,1.0962 l 3.1169,6.15 c 0.20347,0.6031 -0.15061,1.0968 -0.78629,1.0968 v 0"
       stroke="#000000"
       stroke-linecap="round"
       stroke-linejoin="round"
       stroke-width="0.26458"
       id="path20"
       style="fill:#000000" />
    <g
       stroke-width="0.26459"
       id="g30">
      <path
         d="m 27.222,18.591 c 1.1968,0.04853 1.9487,-0.99607 1.9487,-2.1604 v -14.4 C 29.171034,0.9837 28.31924,0.1325 27.2736,0.1325 H 5.5756 c -1.0466,0 -1.8977,0.85112 -1.8977,1.8981 v 14.4 c 0,1.7766 1.0022,2.1409 1.9489,2.1603 z M 4.765,2.163 c 0,-0.44684 0.36306,-0.8099 0.80956,-0.8099 h 21.698 c 0.44618,0 0.8099,0.36306 0.8099,0.8099 v 14.4 c 0,0.44651 -0.36372,0.80956 -0.8099,0.80956 H 5.57456 C 5.12839,17.37256 4.765,17.0095 4.765,16.563 v -14.4"
         stroke="#000000"
         id="path22" />
      <path
         d="m 30.922,28.326 c 0.19785,-0.07123 0.30678,-0.35274 0.1726,-0.60523 l -3.3674,-6.337 c -0.13447,-0.25304 -0.35647,-0.47742 -0.58114,-0.47575 l -2.2038,-0.01064 c -0.28637,0.05106 -0.29152,0.2723 -0.24636,0.54002 l 1.7542,6.5293 c 0.15446,0.32573 0.34894,0.38934 0.59939,0.39474 z"
         id="path24" />
      <path
         d="m 6.5411,16.574 h 19.766 c 0.60875,0 1.1068,-0.49837 1.1068,-1.1078 V 3.2582 c 0,-0.60875 -0.49804,-1.1071 -1.1068,-1.1071 H 6.5411 c -0.60908,0 -1.1071,0.49837 -1.1071,1.1071 v 12.208 c 0,0.60942 0.49804,1.1078 1.1071,1.1078 z"
         id="path26" />
      <path
         d="m 25.63,28.326 c 0.19785,-0.07123 0.24454,-0.3285 0.1726,-0.60523 l -1.6326,-6.281 c -0.07209,-0.27734 -0.35647,-0.5339 -0.58114,-0.53223 H 6.21686 C 5.93049,20.9586 5.5081,21.08577 5.32941,21.40945 l -3.1704,6.4454 c 0.15446,0.32573 0.34894,0.38934 0.59939,0.39474 z"
         id="path28" />
    </g>
    <g
       transform="matrix(0.14524,0.06144,-0.083735,0.13478,47.264,28.731)"
       stroke-linejoin="round"
       stroke-width="6.3602"
       id="g44">
      <path
         d="m -92.371,2.9745 c 0.33608,4.6336 1.5796,7.5961 5.0456,11.257 6.526,5.9455 12.989,13.395 14.581,15.888 -1.7296,-12.011 -8.7185,-17.306 -19.627,-27.145 z m 0,0 c 9.5162,9.8373 16.92,12.14 19.627,27.145 3.3767,2.9012 6.7534,4.9335 10.13,5.9356 3.5513,0.58288 6.9983,0.64437 10.13,-0.87055 3.1556,-1.4445 6.4258,-2.7907 8.1516,-5.4608 0.97607,-2.1311 2.5199,-3.1424 1.2663,-8.2307 -2.5527,-9.4994 -7.2641,-18.135 -17.174,-24.692 -4.8435,-2.4039 -9.4585,-5.4553 -15.512,-4.4319 -4.0098,1.1587 -8.5736,3.0405 -12.583,5.4608 -1.735,1.3251 -3.3987,2.5237 -4.0362,5.1442 z"
         fill="none"
         stroke="#000000"
         stroke-width="5.3849"
         id="path32" />
      <g
         stroke-linecap="round"
         id="g42">
        <path
           d="m -62.02,-2.2884 c -6.1432,-4.1219 -9.7271,-4.0819 -11.238,-4.3528 -0.86696,0.30365 -1.8915,-0.50149 -7.1227,1.7807 5.8493,2.0378 7.9602,4.3142 12.188,6.9644 z"
           stroke="#000000"
           stroke-width="5.3849"
           id="path34" />
        <ellipse
           transform="matrix(0.96688,0.25523,0,1,0,0)"
           cx="-79.307999"
           cy="18.309999"
           rx="3.5822999"
           ry="2.4384999"
           stroke="#ffffff"
           stroke-width="5.4764"
           id="ellipse36" />
        <ellipse
           transform="matrix(0.96707,0.2545,0,1,0,0)"
           cx="-80.125999"
           cy="19.299999"
           rx="3.2939"
           ry="2.2356999"
           stroke="#ffffff"
           stroke-width="5.4758"
           id="ellipse38" />
        <path
           d="m -90.59,2.5788 c 1.9787,-3.4171 5.8877,-5.657 8.5868,-6.3709 3.4217,0.5585 8.4374,4.1194 12.583,6.6479 -4.6379,2.5223 -8.124,4.6444 -13.177,6.6479 z"
           stroke="#000000"
           stroke-width="5.3849"
           id="path40" />
      </g>
    </g>
  </g>
  <g
     transform="matrix(0.14760103,0,0,0.14760103,16.589599,0.86367558)"
     id="g410">
    <g
       transform="matrix(0.33247,0,0,0.33247,28.912,81.732)"
       stroke-width="0.79583"
       id="g408">
      <g
         stroke-width="0.79583"
         id="g406">
        <path
           d="m 98.656,80.699 -9.375,-18.5 c -0.521,-1.546 -1.59,-2.9 -2.932,-3.884 1.209,-1.048 1.988,-2.574 1.988,-4.294 V 10.709 C 88.338,7.56 85.776,5 82.631,5 H 17.367 c -3.148,0 -5.708,2.56 -5.708,5.709 v 43.312 c 0,1.721 0.782,3.248 1.989,4.295 -1.34,0.983 -2.408,2.338 -2.929,3.883 L 1.344,80.698 c -0.633,1.877 -0.386,7.751 0.68,9.232 1.064,1.482 2.809,2.332 4.789,2.332 h 86.375 c 1.979,0 3.725,-0.85 4.789,-2.332 1.065,-1.481 1.311,-7.355 0.679,-9.231 z m -5.468,4.345 H 6.812 c -1.915,0 -2.979,-1.485 -2.368,-3.299 l 9.375,-18.498 c 0.614,-1.812 2.678,-3.297 4.592,-3.297 h 63.176 c 1.913,0 3.979,1.484 4.591,3.297 l 9.375,18.498 c 0.612,1.814 -0.453,3.299 -2.365,3.299 z M 14.932,10.709 c 0,-1.344 1.092,-2.436 2.435,-2.436 h 65.264 c 1.342,0 2.436,1.092 2.436,2.436 v 43.312 c 0,1.343 -1.094,2.435 -2.436,2.435 H 17.367 c -1.342,0 -2.435,-1.092 -2.435,-2.435 z"
           id="path400" />
        <path
           d="m 61.964,72.913 c -0.12,-0.828 -0.937,-1.478 -1.855,-1.478 h -20.22 c -0.92,0 -1.736,0.649 -1.855,1.479 l -1.656,6.943 c -0.062,0.426 0.076,0.852 0.38,1.165 0.302,0.313 0.748,0.494 1.224,0.494 h 24.032 c 0.477,0 0.924,-0.181 1.225,-0.494 0.304,-0.313 0.441,-0.739 0.379,-1.165 z"
           id="path402" />
        <path
           d="m 20.273,54.055 h 59.453 c 1.831,0 3.329,-1.499 3.329,-3.332 V 14.005 c 0,-1.831 -1.498,-3.33 -3.329,-3.33 H 20.273 c -1.832,0 -3.33,1.499 -3.33,3.33 v 36.718 c 0,1.833 1.498,3.332 3.33,3.332 z"
           id="path404" />
      </g>
    </g>
  </g>
  <rect
     style="fill:#000000;stroke-width:0.513386;stroke-linecap:round;stroke-linejoin:round"
     id="rect644"
     width="2.3491492"
     height="3.8633268"
     x="7.536624"
     y="13.192607"
     rx="0.52916664"
     ry="0.49807677" />
  <g
     id="g1313"
     transform="translate(0,-0.03865594)">
    <rect
       style="fill:#000000;stroke:#ffffff;stroke-width:0.0529167;stroke-linecap:round;stroke-linejoin:round;stroke-dasharray:none"
       id="rect646"
       width="1.7436297"
       height="0.43590742"
       x="7.8668823"
       y="13.759166"
       rx="0.13229166"
       ry="0.13229166" />
    <circle
       style="fill:#000000;stroke:#ffffff;stroke-width:0.0529167;stroke-linecap:round;stroke-linejoin:round;stroke-dasharray:none"
       id="path1306"
       cx="9.500946"
       cy="14.722584"
       r="0.1095664" />
    <rect
       style="fill:#000000;stroke:#ffffff;stroke-width:0.0529167;stroke-linecap:round;stroke-linejoin:round;stroke-dasharray:none"
       id="rect1308"
       width="1.6526841"
       height="1.8866864"
       x="7.9123554"
       y="15.000696"
       rx="0.13229166"
       ry="0.13229166" />
  </g>
</svg>
