<?xml version="1.0" encoding="UTF-8" standalone="no"?>
<!-- Created with Inkscape (http://www.inkscape.org/) -->

<svg
   width="137.56015mm"
   height="124.88677mm"
   viewBox="0 0 137.56015 124.88677"
   version="1.1"
   id="svg5"
   xml:space="preserve"
   inkscape:version="1.2.1 (8a69933317, 2022-10-28, custom)"
   sodipodi:docname="RJ45.svg"
   xmlns:inkscape="http://www.inkscape.org/namespaces/inkscape"
   xmlns:sodipodi="http://sodipodi.sourceforge.net/DTD/sodipodi-0.dtd"
   xmlns="http://www.w3.org/2000/svg"
   xmlns:svg="http://www.w3.org/2000/svg"><sodipodi:namedview
     id="namedview7"
     pagecolor="#505050"
     bordercolor="#ffffff"
     borderopacity="1"
     inkscape:showpageshadow="0"
     inkscape:pageopacity="0"
     inkscape:pagecheckerboard="1"
     inkscape:deskcolor="#505050"
     inkscape:document-units="mm"
     showgrid="false"
     inkscape:zoom="0.92486808"
     inkscape:cx="598.46373"
     inkscape:cy="242.1967"
     inkscape:window-width="1920"
     inkscape:window-height="1017"
     inkscape:window-x="0"
     inkscape:window-y="27"
     inkscape:window-maximized="1"
     inkscape:current-layer="layer1" /><defs
     id="defs2" /><g
     inkscape:label="Ebene 1"
     inkscape:groupmode="layer"
     id="layer1"
     transform="translate(-14.373478,-38.603356)"><g
       id="g1631"
       transform="matrix(2.0547508,0,0,2.0548108,-61.644499,-130.23645)"
       style="stroke-width:0.48667"><path
         id="rect1020"
         style="fill:#c2c2c2;stroke:#000000;stroke-width:0.025753;stroke-linecap:round;stroke-linejoin:round"
         d="M 37.009079,82.180931 H 103.93069 V 142.91934 H 37.009079 Z" /><g
         id="g770"
         transform="translate(-2.8084507,-0.78944961)"
         style="stroke-width:0.48667"><path
           id="rect729"
           style="fill:#33d17a;stroke-width:0.025753;stroke-linecap:round;stroke-linejoin:round"
           d="m 52.621895,128.44786 1.615608,0.0165 -2.220509,2.16234 v 1.20445 l 2.116667,2.01226 v 2.62657 l -2.116667,1.84687 v 1.15233 l 2.116667,1.7672 v 2.34198 h -1.511766 v -1.89131 l -2.116667,-1.59481 v -2.38214 l 2.116667,-2.00029 v -1.32961 l -2.116667,-1.94062 v -2.10038 z"
           sodipodi:nodetypes="ccccccccccccccccccc" /><g
           id="g751"
           style="stroke-width:0.48667"><path
             id="path748"
             style="fill:#ffffff;stroke-width:0.025753;stroke-linecap:round;stroke-linejoin:round"
             d="m 52.548153,128.44786 -1.615608,0.0165 2.220509,2.16234 v 1.20445 l -2.116667,2.01226 v 2.62657 l 2.116667,1.84687 v 1.15233 l -2.116667,1.7672 v 2.34198 h 1.511766 v -1.89131 l 2.116667,-1.59481 v -2.38214 l -2.116667,-2.00029 v -1.32961 l 2.116667,-1.94062 v -2.10038 z"
             sodipodi:nodetypes="ccccccccccccccccccc" /></g><path
           id="path717"
           style="fill:#57e389;stroke:none;stroke-width:0.025753;stroke-linecap:round;stroke-linejoin:round"
           d="m 52.651598,130.28673 1.549821,0.0184 -0.005,1.41831 -1.514444,-0.0325 z"
           sodipodi:nodetypes="ccccc" /><path
           id="path719"
           style="fill:#57e389;stroke:none;stroke-width:0.025753;stroke-linecap:round;stroke-linejoin:round"
           d="m 51.959418,132.50585 1.231782,0.99045 -1.064359,1.12995 -1.299805,-0.98658 z"
           sodipodi:nodetypes="ccccc"
           inkscape:transform-center-x="0.057684905"
           inkscape:transform-center-y="-0.75874002" /><path
           id="path721"
           style="fill:#57e389;stroke:none;stroke-width:0.025753;stroke-linecap:round;stroke-linejoin:round"
           d="m 50.880052,136.74535 1.265185,-1.02886 1.260673,1.14575 -1.241238,1.12133 z"
           sodipodi:nodetypes="ccccc" /><path
           id="path723"
           style="fill:#57e389;stroke:none;stroke-width:0.025753;stroke-linecap:round;stroke-linejoin:round"
           d="m 52.730021,138.36873 1.626191,-0.0295 v 1.51217 l -1.626191,0.0295 z"
           sodipodi:nodetypes="ccccc" /><path
           id="path725"
           style="fill:#57e389;stroke:none;stroke-width:0.025753;stroke-linecap:round;stroke-linejoin:round"
           d="m 52.122015,142.20105 -1.497206,-1.03821 v 1.5342 l 1.497206,1.03821 z"
           sodipodi:nodetypes="ccccc" /></g><g
         id="g788"
         transform="matrix(-1,0,0,1,106.28632,-0.78944961)"
         style="stroke-width:0.48667"><path
           id="path772"
           style="fill:#1a5fb4;stroke-width:0.025753;stroke-linecap:round;stroke-linejoin:round"
           d="m 52.621895,128.44786 1.615608,0.0165 -2.220509,2.16234 v 1.20445 l 2.116667,2.01226 v 2.62657 l -2.116667,1.84687 v 1.15233 l 2.116667,1.7672 v 2.34198 h -1.511766 v -1.89131 l -2.116667,-1.59481 v -2.38214 l 2.116667,-2.00029 v -1.32961 l -2.116667,-1.94062 v -2.10038 z"
           sodipodi:nodetypes="ccccccccccccccccccc" /><g
           id="g776"
           style="stroke-width:0.48667"><path
             id="path774"
             style="fill:#ffffff;stroke-width:0.025753;stroke-linecap:round;stroke-linejoin:round"
             d="m 52.120836,128.44786 -1.615608,0.0165 2.220509,2.16234 v 1.20445 l -2.116667,2.01226 v 2.62657 l 2.116667,1.84687 v 1.15233 l -2.116667,1.7672 v 2.34198 h 1.511766 v -1.89131 l 2.116667,-1.59481 v -2.38214 l -2.116667,-2.00029 v -1.32961 l 2.116667,-1.94062 v -2.10038 z"
             sodipodi:nodetypes="ccccccccccccccccccc" /></g><path
           id="path778"
           style="fill:#1a5fb4;stroke:none;stroke-width:0.025753;stroke-linecap:round;stroke-linejoin:round"
           d="m 52.651598,130.28673 1.549821,0.0184 -0.005,1.41831 -1.514444,-0.0325 z"
           sodipodi:nodetypes="ccccc" /><path
           id="path780"
           style="fill:#1a5fb4;stroke:none;stroke-width:0.025753;stroke-linecap:round;stroke-linejoin:round"
           d="m 51.959418,132.50585 1.231782,0.99045 -1.064359,1.12995 -1.299805,-0.98658 z"
           sodipodi:nodetypes="ccccc"
           inkscape:transform-center-x="0.057684905"
           inkscape:transform-center-y="-0.75874002" /><path
           id="path782"
           style="fill:#1a5fb4;stroke:none;stroke-width:0.025753;stroke-linecap:round;stroke-linejoin:round"
           d="m 50.880052,136.74535 1.265185,-1.02886 1.260673,1.14575 -1.241238,1.12133 z"
           sodipodi:nodetypes="ccccc" /><path
           id="path784"
           style="fill:#1a5fb4;stroke:none;stroke-width:0.025753;stroke-linecap:round;stroke-linejoin:round"
           d="m 52.730021,138.36873 1.626191,-0.0295 v 1.51217 l -1.626191,0.0295 z"
           sodipodi:nodetypes="ccccc" /><path
           id="path786"
           style="fill:#1a5fb4;stroke:none;stroke-width:0.025753;stroke-linecap:round;stroke-linejoin:round"
           d="m 52.122015,142.20105 -1.497206,-1.03821 v 1.5342 l 1.497206,1.03821 z"
           sodipodi:nodetypes="ccccc" /></g><g
         id="g818"
         transform="translate(5.1290693,-0.78944961)"
         style="stroke-width:0.48667"><path
           id="path802"
           style="fill:#ff7800;stroke-width:0.025753;stroke-linecap:round;stroke-linejoin:round"
           d="m 52.621895,128.44786 1.615608,0.0165 -2.220509,2.16234 v 1.20445 l 2.116667,2.01226 v 2.62657 l -2.116667,1.84687 v 1.15233 l 2.116667,1.7672 v 2.34198 h -1.511766 v -1.89131 l -2.116667,-1.59481 v -2.38214 l 2.116667,-2.00029 v -1.32961 l -2.116667,-1.94062 v -2.10038 z"
           sodipodi:nodetypes="ccccccccccccccccccc" /><g
           id="g806"
           style="stroke-width:0.48667"><path
             id="path804"
             style="fill:#ffffff;stroke-width:0.025753;stroke-linecap:round;stroke-linejoin:round"
             d="m 52.120836,128.44786 -1.615608,0.0165 2.220509,2.16234 v 1.20445 l -2.116667,2.01226 v 2.62657 l 2.116667,1.84687 v 1.15233 l -2.116667,1.7672 v 2.34198 h 1.511766 v -1.89131 l 2.116667,-1.59481 v -2.38214 l -2.116667,-2.00029 v -1.32961 l 2.116667,-1.94062 v -2.10038 z"
             sodipodi:nodetypes="ccccccccccccccccccc" /></g><path
           id="path808"
           style="fill:#ff7800;stroke:none;stroke-width:0.025753;stroke-linecap:round;stroke-linejoin:round"
           d="m 52.651598,130.28673 1.549821,0.0184 -0.005,1.41831 -1.514444,-0.0325 z"
           sodipodi:nodetypes="ccccc" /><path
           id="path810"
           style="fill:#ff7800;stroke:none;stroke-width:0.025753;stroke-linecap:round;stroke-linejoin:round"
           d="m 51.959418,132.50585 1.231782,0.99045 -1.064359,1.12995 -1.299805,-0.98658 z"
           sodipodi:nodetypes="ccccc"
           inkscape:transform-center-x="0.057684905"
           inkscape:transform-center-y="-0.75874002" /><path
           id="path812"
           style="fill:#ff7800;stroke:none;stroke-width:0.025753;stroke-linecap:round;stroke-linejoin:round"
           d="m 50.880052,136.74535 1.265185,-1.02886 1.260673,1.14575 -1.241238,1.12133 z"
           sodipodi:nodetypes="ccccc" /><path
           id="path814"
           style="fill:#ff7800;stroke:none;stroke-width:0.025753;stroke-linecap:round;stroke-linejoin:round"
           d="m 52.730021,138.36873 1.626191,-0.0295 v 1.51217 l -1.626191,0.0295 z"
           sodipodi:nodetypes="ccccc" /><path
           id="path816"
           style="fill:#ff7800;stroke:none;stroke-width:0.025753;stroke-linecap:round;stroke-linejoin:round"
           d="m 52.122015,142.20105 -1.497206,-1.03821 v 1.5342 l 1.497206,1.03821 z"
           sodipodi:nodetypes="ccccc" /></g><g
         id="g836"
         transform="translate(8.8332353,-0.78944961)"
         style="stroke-width:0.48667"><path
           id="path820"
           style="fill:#63452c;stroke-width:0.025753;stroke-linecap:round;stroke-linejoin:round"
           d="m 52.621895,128.44786 1.615608,0.0165 -2.220509,2.16234 v 1.20445 l 2.116667,2.01226 v 2.62657 l -2.116667,1.84687 v 1.15233 l 2.116667,1.7672 v 2.34198 h -1.511766 v -1.89131 l -2.116667,-1.59481 v -2.38214 l 2.116667,-2.00029 v -1.32961 l -2.116667,-1.94062 v -2.10038 z"
           sodipodi:nodetypes="ccccccccccccccccccc" /><g
           id="g824"
           style="stroke-width:0.48667"><path
             id="path822"
             style="fill:#ffffff;stroke-width:0.025753;stroke-linecap:round;stroke-linejoin:round"
             d="m 52.120836,128.44786 -1.615608,0.0165 2.220509,2.16234 v 1.20445 l -2.116667,2.01226 v 2.62657 l 2.116667,1.84687 v 1.15233 l -2.116667,1.7672 v 2.34198 h 1.511766 v -1.89131 l 2.116667,-1.59481 v -2.38214 l -2.116667,-2.00029 v -1.32961 l 2.116667,-1.94062 v -2.10038 z"
             sodipodi:nodetypes="ccccccccccccccccccc" /></g><path
           id="path826"
           style="fill:#63452c;stroke:none;stroke-width:0.025753;stroke-linecap:round;stroke-linejoin:round"
           d="m 52.651598,130.28673 1.549821,0.0184 -0.005,1.41831 -1.514444,-0.0325 z"
           sodipodi:nodetypes="ccccc" /><path
           id="path828"
           style="fill:#63452c;stroke:none;stroke-width:0.025753;stroke-linecap:round;stroke-linejoin:round"
           d="m 51.959418,132.50585 1.231782,0.99045 -1.064359,1.12995 -1.299805,-0.98658 z"
           sodipodi:nodetypes="ccccc"
           inkscape:transform-center-x="0.057684905"
           inkscape:transform-center-y="-0.75874002" /><path
           id="path830"
           style="fill:#63452c;stroke:none;stroke-width:0.025753;stroke-linecap:round;stroke-linejoin:round"
           d="m 50.880052,136.74535 1.265185,-1.02886 1.260673,1.14575 -1.241238,1.12133 z"
           sodipodi:nodetypes="ccccc" /><path
           id="path832"
           style="fill:#63452c;stroke:none;stroke-width:0.025753;stroke-linecap:round;stroke-linejoin:round"
           d="m 52.730021,138.36873 1.626191,-0.0295 v 1.51217 l -1.626191,0.0295 z"
           sodipodi:nodetypes="ccccc" /><path
           id="path834"
           style="fill:#63452c;stroke:none;stroke-width:0.025753;stroke-linecap:round;stroke-linejoin:round"
           d="m 52.122015,142.20105 -1.497206,-1.03821 v 1.5342 l 1.497206,1.03821 z"
           sodipodi:nodetypes="ccccc" /></g><g
         id="g1256"
         transform="translate(36.917745,-0.78944961)"
         style="stroke-width:0.48667"><path
           id="path1240"
           style="fill:#33d17a;stroke-width:0.025753;stroke-linecap:round;stroke-linejoin:round"
           d="m 52.621895,128.44786 1.615608,0.0165 -2.220509,2.16234 v 1.20445 l 2.116667,2.01226 v 2.62657 l -2.116667,1.84687 v 1.15233 l 2.116667,1.7672 v 2.34198 h -1.511766 v -1.89131 l -2.116667,-1.59481 v -2.38214 l 2.116667,-2.00029 v -1.32961 l -2.116667,-1.94062 v -2.10038 z"
           sodipodi:nodetypes="ccccccccccccccccccc" /><g
           id="g1244"
           style="stroke-width:0.48667"><path
             id="path1242"
             style="fill:#ffffff;stroke-width:0.025753;stroke-linecap:round;stroke-linejoin:round"
             d="m 52.120836,128.44786 -1.615608,0.0165 2.220509,2.16234 v 1.20445 l -2.116667,2.01226 v 2.62657 l 2.116667,1.84687 v 1.15233 l -2.116667,1.7672 v 2.34198 h 1.511766 v -1.89131 l 2.116667,-1.59481 v -2.38214 l -2.116667,-2.00029 v -1.32961 l 2.116667,-1.94062 v -2.10038 z"
             sodipodi:nodetypes="ccccccccccccccccccc" /></g><path
           id="path1246"
           style="fill:#57e389;stroke:none;stroke-width:0.025753;stroke-linecap:round;stroke-linejoin:round"
           d="m 52.651598,130.28673 1.549821,0.0184 -0.005,1.41831 -1.514444,-0.0325 z"
           sodipodi:nodetypes="ccccc" /><path
           id="path1248"
           style="fill:#57e389;stroke:none;stroke-width:0.025753;stroke-linecap:round;stroke-linejoin:round"
           d="m 51.959418,132.50585 1.231782,0.99045 -1.064359,1.12995 -1.299805,-0.98658 z"
           sodipodi:nodetypes="ccccc"
           inkscape:transform-center-x="0.057684905"
           inkscape:transform-center-y="-0.75874002" /><path
           id="path1250"
           style="fill:#57e389;stroke:none;stroke-width:0.025753;stroke-linecap:round;stroke-linejoin:round"
           d="m 50.880052,136.74535 1.265185,-1.02886 1.260673,1.14575 -1.241238,1.12133 z"
           sodipodi:nodetypes="ccccc" /><path
           id="path1252"
           style="fill:#57e389;stroke:none;stroke-width:0.025753;stroke-linecap:round;stroke-linejoin:round"
           d="m 52.730021,138.36873 1.626191,-0.0295 v 1.51217 l -1.626191,0.0295 z"
           sodipodi:nodetypes="ccccc" /><path
           id="path1254"
           style="fill:#57e389;stroke:none;stroke-width:0.025753;stroke-linecap:round;stroke-linejoin:round"
           d="m 52.122015,142.20105 -1.497206,-1.03821 v 1.5342 l 1.497206,1.03821 z"
           sodipodi:nodetypes="ccccc" /></g><g
         id="g1340"
         transform="matrix(-1,0,0,1,138.03632,-0.78944961)"
         style="stroke-width:0.48667"><path
           id="path1324"
           style="fill:#1a5fb4;stroke-width:0.025753;stroke-linecap:round;stroke-linejoin:round"
           d="m 52.621895,128.44786 1.615608,0.0165 -2.220509,2.16234 v 1.20445 l 2.116667,2.01226 v 2.62657 l -2.116667,1.84687 v 1.15233 l 2.116667,1.7672 v 2.34198 h -1.511766 v -1.89131 l -2.116667,-1.59481 v -2.38214 l 2.116667,-2.00029 v -1.32961 l -2.116667,-1.94062 v -2.10038 z"
           sodipodi:nodetypes="ccccccccccccccccccc" /><g
           id="g1328"
           style="stroke-width:0.48667"><path
             id="path1326"
             style="fill:#ffffff;stroke-width:0.025753;stroke-linecap:round;stroke-linejoin:round"
             d="m 52.120836,128.44786 -1.615608,0.0165 2.220509,2.16234 v 1.20445 l -2.116667,2.01226 v 2.62657 l 2.116667,1.84687 v 1.15233 l -2.116667,1.7672 v 2.34198 h 1.511766 v -1.89131 l 2.116667,-1.59481 v -2.38214 l -2.116667,-2.00029 v -1.32961 l 2.116667,-1.94062 v -2.10038 z"
             sodipodi:nodetypes="ccccccccccccccccccc" /></g><path
           id="path1330"
           style="fill:#1a5fb4;stroke:none;stroke-width:0.025753;stroke-linecap:round;stroke-linejoin:round"
           d="m 52.651598,130.28673 1.549821,0.0184 -0.005,1.41831 -1.514444,-0.0325 z"
           sodipodi:nodetypes="ccccc" /><path
           id="path1332"
           style="fill:#1a5fb4;stroke:none;stroke-width:0.025753;stroke-linecap:round;stroke-linejoin:round"
           d="m 51.959418,132.50585 1.231782,0.99045 -1.064359,1.12995 -1.299805,-0.98658 z"
           sodipodi:nodetypes="ccccc"
           inkscape:transform-center-x="0.057684905"
           inkscape:transform-center-y="-0.75874002" /><path
           id="path1334"
           style="fill:#1a5fb4;stroke:none;stroke-width:0.025753;stroke-linecap:round;stroke-linejoin:round"
           d="m 50.880052,136.74535 1.265185,-1.02886 1.260673,1.14575 -1.241238,1.12133 z"
           sodipodi:nodetypes="ccccc" /><path
           id="path1336"
           style="fill:#1a5fb4;stroke:none;stroke-width:0.025753;stroke-linecap:round;stroke-linejoin:round"
           d="m 52.730021,138.36873 1.626191,-0.0295 v 1.51217 l -1.626191,0.0295 z"
           sodipodi:nodetypes="ccccc" /><path
           id="path1338"
           style="fill:#1a5fb4;stroke:none;stroke-width:0.025753;stroke-linecap:round;stroke-linejoin:round"
           d="m 52.122015,142.20105 -1.497206,-1.03821 v 1.5342 l 1.497206,1.03821 z"
           sodipodi:nodetypes="ccccc" /></g><g
         id="g1358"
         transform="translate(29.440282,-0.78944961)"
         style="stroke-width:0.48667"><path
           id="path1342"
           style="fill:#ff7800;stroke-width:0.025753;stroke-linecap:round;stroke-linejoin:round"
           d="m 52.621895,128.44786 1.615608,0.0165 -2.220509,2.16234 v 1.20445 l 2.116667,2.01226 v 2.62657 l -2.116667,1.84687 v 1.15233 l 2.116667,1.7672 v 2.34198 h -1.511766 v -1.89131 l -2.116667,-1.59481 v -2.38214 l 2.116667,-2.00029 v -1.32961 l -2.116667,-1.94062 v -2.10038 z"
           sodipodi:nodetypes="ccccccccccccccccccc" /><g
           id="g1346"
           style="stroke-width:0.48667"><path
             id="path1344"
             style="fill:#ffffff;stroke-width:0.025753;stroke-linecap:round;stroke-linejoin:round"
             d="m 52.120836,128.44786 -1.615608,0.0165 2.220509,2.16234 v 1.20445 l -2.116667,2.01226 v 2.62657 l 2.116667,1.84687 v 1.15233 l -2.116667,1.7672 v 2.34198 h 1.511766 v -1.89131 l 2.116667,-1.59481 v -2.38214 l -2.116667,-2.00029 v -1.32961 l 2.116667,-1.94062 v -2.10038 z"
             sodipodi:nodetypes="ccccccccccccccccccc" /></g><path
           id="path1348"
           style="fill:#ff7800;stroke:none;stroke-width:0.025753;stroke-linecap:round;stroke-linejoin:round"
           d="m 52.651598,130.28673 1.549821,0.0184 -0.005,1.41831 -1.514444,-0.0325 z"
           sodipodi:nodetypes="ccccc" /><path
           id="path1350"
           style="fill:#ff7800;stroke:none;stroke-width:0.025753;stroke-linecap:round;stroke-linejoin:round"
           d="m 51.959418,132.50585 1.231782,0.99045 -1.064359,1.12995 -1.299805,-0.98658 z"
           sodipodi:nodetypes="ccccc"
           inkscape:transform-center-x="0.057684905"
           inkscape:transform-center-y="-0.75874002" /><path
           id="path1352"
           style="fill:#ff7800;stroke:none;stroke-width:0.025753;stroke-linecap:round;stroke-linejoin:round"
           d="m 50.880052,136.74535 1.265185,-1.02886 1.260673,1.14575 -1.241238,1.12133 z"
           sodipodi:nodetypes="ccccc" /><path
           id="path1354"
           style="fill:#ff7800;stroke:none;stroke-width:0.025753;stroke-linecap:round;stroke-linejoin:round"
           d="m 52.730021,138.36873 1.626191,-0.0295 v 1.51217 l -1.626191,0.0295 z"
           sodipodi:nodetypes="ccccc" /><path
           id="path1356"
           style="fill:#ff7800;stroke:none;stroke-width:0.025753;stroke-linecap:round;stroke-linejoin:round"
           d="m 52.122015,142.20105 -1.497206,-1.03821 v 1.5342 l 1.497206,1.03821 z"
           sodipodi:nodetypes="ccccc" /></g><g
         id="g1376"
         transform="translate(40.583236,-0.78944961)"
         style="stroke-width:0.48667"><path
           id="path1360"
           style="fill:#63452c;stroke-width:0.025753;stroke-linecap:round;stroke-linejoin:round"
           d="m 52.621895,128.44786 1.615608,0.0165 -2.220509,2.16234 v 1.20445 l 2.116667,2.01226 v 2.62657 l -2.116667,1.84687 v 1.15233 l 2.116667,1.7672 v 2.34198 h -1.511766 v -1.89131 l -2.116667,-1.59481 v -2.38214 l 2.116667,-2.00029 v -1.32961 l -2.116667,-1.94062 v -2.10038 z"
           sodipodi:nodetypes="ccccccccccccccccccc" /><g
           id="g1364"
           style="stroke-width:0.48667"><path
             id="path1362"
             style="fill:#ffffff;stroke-width:0.025753;stroke-linecap:round;stroke-linejoin:round"
             d="m 52.120836,128.44786 -1.615608,0.0165 2.220509,2.16234 v 1.20445 l -2.116667,2.01226 v 2.62657 l 2.116667,1.84687 v 1.15233 l -2.116667,1.7672 v 2.34198 h 1.511766 v -1.89131 l 2.116667,-1.59481 v -2.38214 l -2.116667,-2.00029 v -1.32961 l 2.116667,-1.94062 v -2.10038 z"
             sodipodi:nodetypes="ccccccccccccccccccc" /></g><path
           id="path1366"
           style="fill:#63452c;stroke:none;stroke-width:0.025753;stroke-linecap:round;stroke-linejoin:round"
           d="m 52.651598,130.28673 1.549821,0.0184 -0.005,1.41831 -1.514444,-0.0325 z"
           sodipodi:nodetypes="ccccc" /><path
           id="path1368"
           style="fill:#63452c;stroke:none;stroke-width:0.025753;stroke-linecap:round;stroke-linejoin:round"
           d="m 51.959418,132.50585 1.231782,0.99045 -1.064359,1.12995 -1.299805,-0.98658 z"
           sodipodi:nodetypes="ccccc"
           inkscape:transform-center-x="0.057684905"
           inkscape:transform-center-y="-0.75874002" /><path
           id="path1370"
           style="fill:#63452c;stroke:none;stroke-width:0.025753;stroke-linecap:round;stroke-linejoin:round"
           d="m 50.880052,136.74535 1.265185,-1.02886 1.260673,1.14575 -1.241238,1.12133 z"
           sodipodi:nodetypes="ccccc" /><path
           id="path1372"
           style="fill:#63452c;stroke:none;stroke-width:0.025753;stroke-linecap:round;stroke-linejoin:round"
           d="m 52.730021,138.36873 1.626191,-0.0295 v 1.51217 l -1.626191,0.0295 z"
           sodipodi:nodetypes="ccccc" /><path
           id="path1374"
           style="fill:#63452c;stroke:none;stroke-width:0.025753;stroke-linecap:round;stroke-linejoin:round"
           d="m 52.122015,142.20105 -1.497206,-1.03821 v 1.5342 l 1.497206,1.03821 z"
           sodipodi:nodetypes="ccccc" /></g><path
         id="rect300"
         style="fill:#808080;stroke:#000000;stroke-width:0.025753;stroke-linecap:round;stroke-linejoin:round"
         d="M 45.797067,93.221994 H 63.986976 V 118.47309 H 45.797067 Z" /><path
         id="rect838"
         style="fill:#d4a018;stroke:#000000;stroke-width:0.025753;stroke-linecap:round;stroke-linejoin:round"
         d="m 48.039831,93.226312 h 1.363868 v 3.809147 h -1.363868 z" /><g
         id="g577"
         transform="matrix(1,0,0,0.98097968,-2.8084507,1.0703993)"
         style="stroke-width:0.491366"><path
           id="rect468"
           style="fill:#ffffff;stroke:#000000;stroke-width:0.0260014;stroke-linecap:round;stroke-linejoin:round"
           d="m 50.775639,97.791878 h 1.486802 v 15.484112 h -1.486802 z" /><path
           id="rect470"
           style="fill:#57e389;stroke:none;stroke-width:0.0260014;stroke-linecap:round;stroke-linejoin:round"
           d="m 50.766804,99.221726 1.497206,-1.05833 v 1.563927 l -1.497206,1.058337 z"
           sodipodi:nodetypes="ccccc" /><path
           id="path569"
           style="fill:#57e389;stroke:none;stroke-width:0.0260014;stroke-linecap:round;stroke-linejoin:round"
           d="m 50.766804,102.39674 1.497206,-1.05834 v 1.56394 l -1.497206,1.05834 z"
           sodipodi:nodetypes="ccccc" /><path
           id="path571"
           style="fill:#57e389;stroke:none;stroke-width:0.0260014;stroke-linecap:round;stroke-linejoin:round"
           d="m 50.766804,105.57176 1.497206,-1.05834 v 1.56394 l -1.497206,1.05834 z"
           sodipodi:nodetypes="ccccc" /><path
           id="path669"
           style="fill:#57e389;stroke:none;stroke-width:0.0260014;stroke-linecap:round;stroke-linejoin:round"
           d="m 50.766804,108.74678 1.497206,-1.05834 v 1.56394 l -1.497206,1.05834 z"
           sodipodi:nodetypes="ccccc" /><path
           id="path671"
           style="fill:#57e389;stroke:none;stroke-width:0.0260014;stroke-linecap:round;stroke-linejoin:round"
           d="m 50.766804,111.73097 1.497206,-1.05834 v 1.56394 l -1.497206,1.05834 z"
           sodipodi:nodetypes="ccccc" /></g><path
         id="rect896"
         style="fill:#d4a018;stroke:#000000;stroke-width:0.025753;stroke-linecap:round;stroke-linejoin:round"
         d="m 49.896116,93.226312 h 1.363868 v 3.809147 h -1.363868 z" /><path
         id="rect900"
         style="fill:#d4a018;stroke:#000000;stroke-width:0.025753;stroke-linecap:round;stroke-linejoin:round"
         d="m 53.59398,93.226312 h 1.363869 v 3.809147 H 53.59398 Z" /><path
         id="rect304"
         style="fill:#1a5fb4;stroke:#000000;stroke-width:0.025753;stroke-linecap:round;stroke-linejoin:round"
         d="m 46.952184,110.81646 h 16.211544 v 17.06532 H 46.952184 Z" /><path
         id="rect898"
         style="fill:#d4a018;stroke:#000000;stroke-width:0.025753;stroke-linecap:round;stroke-linejoin:round"
         d="m 51.730856,93.226312 h 1.363868 v 3.809147 h -1.363868 z" /><g
         id="g685"
         transform="matrix(1,0,0,0.98097968,0.8957161,1.0278707)"
         style="stroke-width:0.491366"><path
           id="rect673"
           style="fill:#ffffff;stroke:#000000;stroke-width:0.0260014;stroke-linecap:round;stroke-linejoin:round"
           d="m 50.775639,97.791878 h 1.486802 v 15.484112 h -1.486802 z" /><path
           id="path675"
           style="fill:#ff7800;stroke:none;stroke-width:0.0260014;stroke-linecap:round;stroke-linejoin:round"
           d="m 50.766804,99.221726 1.497206,-1.05833 v 1.563927 l -1.497206,1.058337 z"
           sodipodi:nodetypes="ccccc" /><path
           id="path677"
           style="fill:#ff7800;stroke:none;stroke-width:0.0260014;stroke-linecap:round;stroke-linejoin:round"
           d="m 50.766804,102.39674 1.497206,-1.05834 v 1.56394 l -1.497206,1.05834 z"
           sodipodi:nodetypes="ccccc" /><path
           id="path679"
           style="fill:#ff7800;stroke:none;stroke-width:0.0260014;stroke-linecap:round;stroke-linejoin:round"
           d="m 50.766804,105.57176 1.497206,-1.05834 v 1.56394 l -1.497206,1.05834 z"
           sodipodi:nodetypes="ccccc" /><path
           id="path681"
           style="fill:#ff7800;stroke:none;stroke-width:0.0260014;stroke-linecap:round;stroke-linejoin:round"
           d="m 50.766804,108.74678 1.497206,-1.05834 v 1.56394 l -1.497206,1.05834 z"
           sodipodi:nodetypes="ccccc" /><path
           id="path683"
           style="fill:#ff7800;stroke:none;stroke-width:0.0260014;stroke-linecap:round;stroke-linejoin:round"
           d="m 50.766804,111.73097 1.497206,-1.05834 v 1.56394 l -1.497206,1.05834 z"
           sodipodi:nodetypes="ccccc" /></g><path
         id="rect902"
         style="fill:#d4a018;stroke:#000000;stroke-width:0.025753;stroke-linecap:round;stroke-linejoin:round"
         d="m 55.426485,93.226312 h 1.363868 v 3.809147 h -1.363868 z" /><g
         id="g699"
         transform="matrix(1,0,0,0.98097968,4.599883,1.0278707)"
         style="stroke-width:0.491366"><path
           id="rect687"
           style="fill:#ffffff;stroke:#000000;stroke-width:0.0260014;stroke-linecap:round;stroke-linejoin:round"
           d="m 50.775639,97.791878 h 1.486802 v 15.484112 h -1.486802 z" /><path
           id="path689"
           style="fill:#1a5fb4;stroke:none;stroke-width:0.0260014;stroke-linecap:round;stroke-linejoin:round"
           d="m 50.766804,99.221726 1.497206,-1.05833 v 1.563927 l -1.497206,1.058337 z"
           sodipodi:nodetypes="ccccc" /><path
           id="path691"
           style="fill:#1a5fb4;stroke:none;stroke-width:0.0260014;stroke-linecap:round;stroke-linejoin:round"
           d="m 50.766804,102.39674 1.497206,-1.05834 v 1.56394 l -1.497206,1.05834 z"
           sodipodi:nodetypes="ccccc" /><path
           id="path693"
           style="fill:#1a5fb4;stroke:none;stroke-width:0.0260014;stroke-linecap:round;stroke-linejoin:round"
           d="m 50.766804,105.57176 1.497206,-1.05834 v 1.56394 l -1.497206,1.05834 z"
           sodipodi:nodetypes="ccccc" /><path
           id="path695"
           style="fill:#1a5fb4;stroke:none;stroke-width:0.0260014;stroke-linecap:round;stroke-linejoin:round"
           d="m 50.766804,108.74678 1.497206,-1.05834 v 1.56394 l -1.497206,1.05834 z"
           sodipodi:nodetypes="ccccc" /><path
           id="path697"
           style="fill:#1a5fb4;stroke:none;stroke-width:0.0260014;stroke-linecap:round;stroke-linejoin:round"
           d="m 50.766804,111.73097 1.497206,-1.05834 v 1.56394 l -1.497206,1.05834 z"
           sodipodi:nodetypes="ccccc" /></g><path
         id="rect906"
         style="fill:#d4a018;stroke:#000000;stroke-width:0.025753;stroke-linecap:round;stroke-linejoin:round"
         d="m 59.147455,93.226312 h 1.363868 v 3.809147 h -1.363868 z" /><g
         id="g713"
         transform="matrix(1,0,0,0.98097968,8.3040503,1.0278707)"
         style="stroke-width:0.491366"><path
           id="rect701"
           style="fill:#ffffff;stroke:#000000;stroke-width:0.0260014;stroke-linecap:round;stroke-linejoin:round"
           d="m 50.775639,97.791878 h 1.486802 v 15.484112 h -1.486802 z" /><path
           id="path703"
           style="fill:#63452c;stroke:none;stroke-width:0.0260014;stroke-linecap:round;stroke-linejoin:round"
           d="m 50.766804,99.221726 1.497206,-1.05833 v 1.563927 l -1.497206,1.058337 z"
           sodipodi:nodetypes="ccccc" /><path
           id="path705"
           style="fill:#63452c;stroke:none;stroke-width:0.0260014;stroke-linecap:round;stroke-linejoin:round"
           d="m 50.766804,102.39674 1.497206,-1.05834 v 1.56394 l -1.497206,1.05834 z"
           sodipodi:nodetypes="ccccc" /><path
           id="path707"
           style="fill:#63452c;stroke:none;stroke-width:0.0260014;stroke-linecap:round;stroke-linejoin:round"
           d="m 50.766804,105.57176 1.497206,-1.05834 v 1.56394 l -1.497206,1.05834 z"
           sodipodi:nodetypes="ccccc" /><path
           id="path709"
           style="fill:#63452c;stroke:none;stroke-width:0.0260014;stroke-linecap:round;stroke-linejoin:round"
           d="m 50.766804,108.74678 1.497206,-1.05834 v 1.56394 l -1.497206,1.05834 z"
           sodipodi:nodetypes="ccccc" /><path
           id="path711"
           style="fill:#63452c;stroke:none;stroke-width:0.0260014;stroke-linecap:round;stroke-linejoin:round"
           d="m 50.766804,111.73097 1.497206,-1.05834 v 1.56394 l -1.497206,1.05834 z"
           sodipodi:nodetypes="ccccc" /></g><path
         id="rect464"
         style="fill:#6a6a6a;stroke:#000000;stroke-width:0.025753;stroke-linecap:round;stroke-linejoin:round"
         d="m 45.571199,110.759 h 18.642689 v 8.11535 H 45.571199 Z" /><path
         id="rect466"
         style="fill:#505050;stroke:#000000;stroke-width:0.025753;stroke-linecap:round;stroke-linejoin:round"
         d="m 47.995695,112.58913 h 14.506634 v 3.83417 H 47.995695 Z" /><path
         id="rect908"
         style="fill:#d4a018;stroke:#000000;stroke-width:0.025753;stroke-linecap:round;stroke-linejoin:round"
         d="m 60.991491,93.226312 h 1.363868 v 3.809147 h -1.363868 z" /><path
         id="rect661"
         style="fill:#63452c;stroke-width:0.025753;stroke-linecap:round;stroke-linejoin:round"
         d="m 60.925951,96.966753 h 1.511765 v 13.816407 h -1.511765 z" /><path
         id="rect904"
         style="fill:#d4a018;stroke:#000000;stroke-width:0.025753;stroke-linecap:round;stroke-linejoin:round"
         d="m 57.294031,93.226312 h 1.363868 v 3.809147 h -1.363868 z" /><path
         id="rect663"
         style="fill:#ff7800;stroke-width:0.025753;stroke-linecap:round;stroke-linejoin:round"
         d="M 57.221784,96.966753 H 58.73355 V 110.78316 H 57.221784 Z" /><path
         id="rect665"
         style="fill:#1a5fb4;stroke-width:0.025753;stroke-linecap:round;stroke-linejoin:round"
         d="M 53.517614,96.966753 H 55.02938 V 110.78316 H 53.517614 Z" /><path
         id="rect667"
         style="fill:#33d17a;stroke-width:0.025753;stroke-linecap:round;stroke-linejoin:round"
         d="M 49.813444,96.966753 H 51.32521 V 110.78316 H 49.813444 Z" /><g
         aria-label="1 2 3 4 5 6 7 8"
         transform="matrix(0.87366229,0,0,1.144607,-2.8084507,-0.78944961)"
         id="text964"
         style="font-size:3.08208px;line-height:0;font-family:'Source Sans Pro';-inkscape-font-specification:'Source Sans Pro';text-align:center;letter-spacing:0px;word-spacing:0px;text-anchor:middle;stroke-width:0.128764"><path
           d="m 58.264587,84.205795 h 1.109548 V 83.996214 H 58.967301 V 82.239428 H 58.77313 c -0.107873,0.06472 -0.23732,0.114037 -0.416081,0.144858 v 0.16335 h 0.357521 v 1.448578 h -0.449983 z"
           id="path537"
           style="stroke-width:0.128764" /><path
           d="m 60.292591,84.205795 h 1.269817 v -0.218827 h -0.570185 c -0.101709,0 -0.22191,0.0092 -0.329783,0.01849 0.465394,-0.486969 0.801341,-0.853736 0.801341,-1.223586 0,-0.348275 -0.224992,-0.579431 -0.588677,-0.579431 -0.255813,0 -0.431491,0.120201 -0.594842,0.298962 l 0.144858,0.144858 c 0.114037,-0.13253 0.255813,-0.23732 0.419163,-0.23732 0.249649,0 0.372932,0.160268 0.372932,0.38526 0,0.317454 -0.332865,0.671893 -0.924624,1.26057 z"
           id="path539"
           style="stroke-width:0.128764" /><path
           d="m 63.044884,84.24278 c 0.360603,0 0.647236,-0.212663 0.647236,-0.560938 0,-0.271223 -0.188006,-0.44382 -0.425327,-0.499297 v -0.01233 c 0.212664,-0.08013 0.357522,-0.231156 0.357522,-0.468476 0,-0.317454 -0.246567,-0.499297 -0.588678,-0.499297 -0.231156,0 -0.412998,0.104791 -0.56402,0.246567 l 0.135611,0.160268 c 0.117119,-0.117119 0.255813,-0.200335 0.419163,-0.200335 0.209582,0 0.339029,0.120201 0.339029,0.31129 0,0.206499 -0.138694,0.366767 -0.557856,0.366767 v 0.194171 c 0.468476,0 0.628744,0.157186 0.628744,0.391424 0,0.218828 -0.169515,0.360604 -0.406835,0.360604 -0.231156,0 -0.38526,-0.110955 -0.502379,-0.234238 l -0.129447,0.166432 c 0.132529,0.144858 0.332865,0.277387 0.647237,0.277388 z"
           id="path541"
           style="stroke-width:0.128764" /><path
           d="m 65.40267,84.205795 h 0.240403 v -0.542446 h 0.268141 v -0.203417 h -0.268141 v -1.220504 h -0.283552 l -0.841408,1.257489 v 0.166432 h 0.884557 z m -0.616416,-0.745863 0.45923,-0.671893 c 0.05548,-0.09555 0.110955,-0.181843 0.160268,-0.277388 h 0.01233 c -0.0062,0.104791 -0.01541,0.274305 -0.01541,0.379096 v 0.570185 z"
           id="path543"
           style="stroke-width:0.128764" /><path
           d="m 67.33513,84.24278 c 0.342111,0 0.662647,-0.240402 0.662647,-0.665729 0,-0.425327 -0.274305,-0.616416 -0.610252,-0.616416 -0.120201,0 -0.209581,0.03082 -0.302043,0.08013 l 0.0524,-0.582513 h 0.761274 v -0.218828 h -0.983184 l -0.06472,0.946199 0.135611,0.0863 c 0.117119,-0.07705 0.200335,-0.120201 0.335947,-0.120201 0.25273,0 0.419163,0.160268 0.419163,0.431491 0,0.274305 -0.191089,0.449984 -0.431492,0.449984 -0.231156,0 -0.379095,-0.107873 -0.496214,-0.224992 l -0.123284,0.166432 c 0.135612,0.135612 0.329783,0.268141 0.644155,0.268141 z"
           id="path545"
           style="stroke-width:0.128764" /><path
           d="m 69.588127,84.24278 c 0.317454,0 0.582513,-0.255812 0.582513,-0.631826 0,-0.403753 -0.22191,-0.60717 -0.560939,-0.60717 -0.160268,0 -0.335947,0.09555 -0.45923,0.246567 0.01233,-0.622581 0.243485,-0.835244 0.51779,-0.835244 0.123283,0 0.243484,0.05856 0.323618,0.154104 l 0.141776,-0.157186 c -0.110955,-0.120201 -0.261977,-0.209582 -0.474641,-0.209582 -0.391424,0 -0.748945,0.305126 -0.748945,1.094139 0,0.631826 0.292798,0.946198 0.678058,0.946198 z m 0,-0.200335 c -0.249649,0 -0.400671,-0.206499 -0.431492,-0.588677 0.123284,-0.181843 0.283552,-0.258895 0.409917,-0.258895 0.243484,0 0.363685,0.160268 0.363685,0.416081 0,0.258895 -0.147939,0.431491 -0.34211,0.431491 z"
           id="path547"
           style="stroke-width:0.128764" /><path
           d="m 71.455862,84.205795 h 0.261977 c 0.0339,-0.767438 0.129447,-1.214339 0.594841,-1.809181 v -0.157186 h -1.266735 v 0.218828 h 0.980102 c -0.388342,0.539364 -0.536282,1.00784 -0.570185,1.747539 z"
           id="path549"
           style="stroke-width:0.128764" /><path
           d="m 73.82906,84.24278 c 0.382178,0 0.634908,-0.231156 0.634908,-0.523953 0,-0.265059 -0.166432,-0.403753 -0.342111,-0.505461 v -0.01233 c 0.120201,-0.09246 0.271223,-0.268141 0.271223,-0.47464 0,-0.305126 -0.212663,-0.523954 -0.554774,-0.523954 -0.317454,0 -0.557857,0.203418 -0.557857,0.505461 0,0.2065 0.129448,0.351358 0.274306,0.453066 v 0.01233 c -0.184925,0.09863 -0.36985,0.274305 -0.36985,0.530117 0,0.31129 0.274305,0.539364 0.644155,0.539364 z m 0.138693,-1.109549 c -0.23732,-0.09246 -0.453065,-0.191088 -0.453065,-0.425327 0,-0.191088 0.135611,-0.317454 0.317454,-0.317454 0.215745,0 0.342111,0.154104 0.342111,0.348275 0,0.144858 -0.07397,0.277387 -0.2065,0.394506 z m -0.132529,0.921542 c -0.240402,0 -0.422245,-0.157186 -0.422245,-0.376013 0,-0.178761 0.117119,-0.323619 0.274305,-0.428409 0.283551,0.114036 0.5332,0.206499 0.5332,0.459229 0,0.203418 -0.157186,0.345193 -0.38526,0.345193 z"
           id="path551"
           style="stroke-width:0.128764" /></g><g
         id="text1018"
         style="font-size:3.52777px;line-height:0;font-family:'Source Sans Pro';-inkscape-font-specification:'Source Sans Pro';text-align:center;letter-spacing:0px;word-spacing:0px;text-anchor:middle;stroke-width:0.128764" /><g
         aria-label="RJ45 Pinbelegung"
         id="text1108"
         style="font-size:4.63518px;line-height:0;font-family:'Source Sans Pro';-inkscape-font-specification:'Source Sans Pro';text-align:center;letter-spacing:0px;word-spacing:0px;text-anchor:middle;stroke-width:0.128765"><path
           d="m 53.386968,88.900391 h 0.38472 v -1.283945 h 0.551587 l 0.732358,1.283945 h 0.435707 l -0.774075,-1.325662 c 0.417166,-0.101974 0.686007,-0.389355 0.686007,-0.862143 0,-0.630385 -0.444978,-0.852873 -1.066092,-0.852873 h -0.950212 z m 0.38472,-1.599137 V 86.17027 h 0.50987 c 0.472789,0 0.736994,0.14369 0.736994,0.542316 0,0.39399 -0.264205,0.588668 -0.736994,0.588668 z"
           id="path485"
           style="stroke-width:0.128765" /><path
           d="m 56.50643,88.956013 c 0.593303,0 0.838967,-0.426437 0.838967,-0.950212 v -2.146088 h -0.389355 v 2.109006 c 0,0.463518 -0.162231,0.648926 -0.486694,0.648926 -0.217853,0 -0.389355,-0.101974 -0.523775,-0.343004 l -0.278111,0.194678 c 0.176137,0.319827 0.454248,0.486694 0.838968,0.486694 z"
           id="path487"
           style="stroke-width:0.128765" /><path
           d="m 59.15775,88.900391 h 0.361544 v -0.815792 h 0.403261 v -0.305922 h -0.403261 v -1.835531 h -0.426436 l -1.265404,1.891153 v 0.2503 h 1.330296 z m -0.927036,-1.121714 0.690642,-1.010469 c 0.08343,-0.143691 0.166867,-0.273476 0.24103,-0.417166 h 0.01854 c -0.0093,0.157596 -0.02318,0.412531 -0.02318,0.570127 v 0.857508 z"
           id="path489"
           style="stroke-width:0.128765" /><path
           d="m 61.136971,88.956013 c 0.514505,0 0.996564,-0.361544 0.996564,-1.001199 0,-0.639655 -0.412531,-0.927036 -0.917766,-0.927036 -0.180772,0 -0.315192,0.04635 -0.454248,0.120515 l 0.0788,-0.876049 h 1.14489 v -0.329098 h -1.478622 l -0.09734,1.423 0.203948,0.129785 c 0.176137,-0.115879 0.301286,-0.180772 0.505234,-0.180772 0.380085,0 0.630385,0.241029 0.630385,0.648925 0,0.412531 -0.287381,0.676737 -0.648925,0.676737 -0.347639,0 -0.570128,-0.162232 -0.746264,-0.338369 l -0.185408,0.2503 c 0.203948,0.203948 0.495965,0.403261 0.968752,0.403261 z"
           id="path491"
           style="stroke-width:0.128765" /><path
           d="m 63.700219,88.900391 h 0.38472 v -1.205147 h 0.500599 c 0.667466,0 1.121714,-0.301287 1.121714,-0.940942 0,-0.667466 -0.458883,-0.894589 -1.140254,-0.894589 h -0.866779 z m 0.38472,-1.520339 V 86.17027 h 0.435707 c 0.533046,0 0.801886,0.14369 0.801886,0.584032 0,0.431072 -0.254935,0.62575 -0.783345,0.62575 z"
           id="path493"
           style="stroke-width:0.128765" /><path
           d="m 66.28665,88.900391 h 0.380085 V 86.647693 H 66.28665 Z m 0.194677,-2.716216 c 0.148326,0 0.264206,-0.101974 0.264206,-0.245664 0,-0.148326 -0.11588,-0.245665 -0.264206,-0.245665 -0.148325,0 -0.264205,0.09734 -0.264205,0.245665 0,0.14369 0.11588,0.245664 0.264205,0.245664 z"
           id="path495"
           style="stroke-width:0.128765" /><path
           d="m 67.426896,88.900391 h 0.380085 v -1.631584 c 0.227124,-0.227124 0.38472,-0.347638 0.616479,-0.347638 0.296651,0 0.426436,0.180772 0.426436,0.602573 v 1.376649 h 0.380085 v -1.427636 c 0,-0.574762 -0.213218,-0.880684 -0.686006,-0.880684 -0.310558,0 -0.542317,0.166866 -0.755535,0.380085 h -0.0139 l -0.03245,-0.324463 h -0.315192 z"
           id="path497"
           style="stroke-width:0.128765" /><path
           d="m 70.958898,88.956013 c 0.514505,0 0.973388,-0.449613 0.973388,-1.219053 0,-0.695277 -0.310557,-1.144889 -0.89459,-1.144889 -0.250299,0 -0.500599,0.13442 -0.704547,0.315192 l 0.0093,-0.407896 v -0.899225 h -0.380084 v 3.300249 h 0.305922 l 0.03245,-0.231759 h 0.01391 c 0.199313,0.180772 0.435707,0.287381 0.64429,0.287381 z m -0.06489,-0.319828 c -0.148326,0 -0.352274,-0.06489 -0.551587,-0.236394 V 87.21782 c 0.213219,-0.199312 0.412531,-0.305922 0.602574,-0.305922 0.426436,0 0.593303,0.333733 0.593303,0.829698 0,0.556221 -0.273476,0.894589 -0.64429,0.894589 z"
           id="path499"
           style="stroke-width:0.128765" /><path
           d="m 73.438719,88.956013 c 0.305921,0 0.546951,-0.106609 0.741628,-0.231759 l -0.13442,-0.2503 c -0.166866,0.106609 -0.347638,0.176137 -0.560857,0.176137 -0.431071,0 -0.723088,-0.305922 -0.750899,-0.783346 h 1.520339 c 0.0093,-0.05562 0.01391,-0.139055 0.01391,-0.217853 0,-0.64429 -0.324463,-1.056821 -0.899225,-1.056821 -0.514505,0 -1.010469,0.449612 -1.010469,1.186606 0,0.736994 0.477423,1.177336 1.079997,1.177336 z M 72.729536,87.59327 c 0.04635,-0.444977 0.333733,-0.699912 0.648925,-0.699912 0.352274,0 0.556222,0.245664 0.556222,0.699912 z"
           id="path501"
           style="stroke-width:0.128765" /><path
           d="m 75.227891,88.956013 c 0.101973,0 0.166866,-0.01391 0.217853,-0.03708 l -0.05099,-0.287381 c -0.04172,0.0093 -0.06026,0.0093 -0.08343,0.0093 -0.05562,0 -0.106609,-0.04635 -0.106609,-0.166867 V 85.600142 H 74.82463 v 2.846001 c 0,0.329098 0.115879,0.50987 0.403261,0.50987 z"
           id="path503"
           style="stroke-width:0.128765" /><path
           d="m 76.919727,88.956013 c 0.305922,0 0.546951,-0.106609 0.741629,-0.231759 l -0.13442,-0.2503 c -0.166867,0.106609 -0.347639,0.176137 -0.560857,0.176137 -0.431072,0 -0.723088,-0.305922 -0.750899,-0.783346 h 1.520339 c 0.0093,-0.05562 0.01391,-0.139055 0.01391,-0.217853 0,-0.64429 -0.324462,-1.056821 -0.899225,-1.056821 -0.514505,0 -1.010469,0.449612 -1.010469,1.186606 0,0.736994 0.477424,1.177336 1.079997,1.177336 z M 76.210545,87.59327 c 0.04635,-0.444977 0.333733,-0.699912 0.648925,-0.699912 0.352273,0 0.556221,0.245664 0.556221,0.699912 z"
           id="path505"
           style="stroke-width:0.128765" /><path
           d="m 79.019454,89.938671 c 0.699912,0 1.140254,-0.361544 1.140254,-0.77871 0,-0.37545 -0.264205,-0.537681 -0.787981,-0.537681 H 78.93602 c -0.305922,0 -0.398625,-0.101974 -0.398625,-0.245665 0,-0.12515 0.06489,-0.199312 0.14369,-0.26884 0.101974,0.05099 0.227124,0.0788 0.338369,0.0788 0.458882,0 0.825062,-0.301287 0.825062,-0.783346 0,-0.190042 -0.0788,-0.361544 -0.185408,-0.463518 h 0.463518 v -0.292016 h -0.783345 c -0.08343,-0.03245 -0.194678,-0.05562 -0.319827,-0.05562 -0.458883,0 -0.848238,0.310557 -0.848238,0.801886 0,0.268841 0.14369,0.486694 0.292016,0.607209 v 0.01854 c -0.115879,0.0788 -0.245665,0.227124 -0.245665,0.417167 0,0.176136 0.08807,0.296651 0.199313,0.366179 v 0.01854 c -0.203948,0.139055 -0.329098,0.319827 -0.329098,0.509869 0,0.389355 0.380085,0.607209 0.931672,0.607209 z m 0,-2.007033 c -0.25957,0 -0.477424,-0.208583 -0.477424,-0.537681 0,-0.329098 0.213218,-0.523775 0.477424,-0.523775 0.264205,0 0.477423,0.194677 0.477423,0.523775 0,0.329098 -0.217853,0.537681 -0.477423,0.537681 z m 0.05562,1.742828 c -0.407896,0 -0.653561,-0.152961 -0.653561,-0.393991 0,-0.129785 0.06953,-0.264205 0.231759,-0.380084 0.09734,0.02781 0.203948,0.03708 0.292017,0.03708 h 0.389355 c 0.292016,0 0.454247,0.06953 0.454247,0.278111 0,0.236394 -0.282745,0.458883 -0.713817,0.458884 z"
           id="path507"
           style="stroke-width:0.128765" /><path
           d="m 81.25361,88.956013 c 0.310557,0 0.533045,-0.162232 0.741629,-0.407896 h 0.01391 l 0.03245,0.352274 h 0.315193 v -2.252698 h -0.380085 v 1.599137 c -0.213218,0.264206 -0.37545,0.380085 -0.607209,0.380085 -0.296651,0 -0.421801,-0.180772 -0.421801,-0.602573 v -1.376649 h -0.38472 v 1.427636 c 0,0.574762 0.213218,0.880684 0.690642,0.880684 z"
           id="path509"
           style="stroke-width:0.128765" /><path
           d="m 83.116946,88.900391 h 0.380085 v -1.631584 c 0.227124,-0.227124 0.38472,-0.347638 0.616479,-0.347638 0.296652,0 0.426437,0.180772 0.426437,0.602573 v 1.376649 h 0.380084 v -1.427636 c 0,-0.574762 -0.213218,-0.880684 -0.686006,-0.880684 -0.310557,0 -0.542316,0.166866 -0.755535,0.380085 h -0.0139 l -0.03245,-0.324463 h -0.315193 z"
           id="path511"
           style="stroke-width:0.128765" /><path
           d="m 86.412554,89.938671 c 0.699913,0 1.140255,-0.361544 1.140255,-0.77871 0,-0.37545 -0.264206,-0.537681 -0.787981,-0.537681 h -0.435707 c -0.305922,0 -0.398625,-0.101974 -0.398625,-0.245665 0,-0.12515 0.06489,-0.199312 0.14369,-0.26884 0.101974,0.05099 0.227124,0.0788 0.338368,0.0788 0.458883,0 0.825062,-0.301287 0.825062,-0.783346 0,-0.190042 -0.0788,-0.361544 -0.185407,-0.463518 h 0.463518 v -0.292016 h -0.783345 c -0.08343,-0.03245 -0.194678,-0.05562 -0.319828,-0.05562 -0.458882,0 -0.848238,0.310557 -0.848238,0.801886 0,0.268841 0.143691,0.486694 0.292017,0.607209 v 0.01854 c -0.11588,0.0788 -0.245665,0.227124 -0.245665,0.417167 0,0.176136 0.08807,0.296651 0.199313,0.366179 v 0.01854 c -0.203948,0.139055 -0.329098,0.319827 -0.329098,0.509869 0,0.389355 0.380085,0.607209 0.931671,0.607209 z m 0,-2.007033 c -0.25957,0 -0.477423,-0.208583 -0.477423,-0.537681 0,-0.329098 0.213218,-0.523775 0.477423,-0.523775 0.264206,0 0.477424,0.194677 0.477424,0.523775 0,0.329098 -0.217854,0.537681 -0.477424,0.537681 z m 0.05562,1.742828 c -0.407896,0 -0.653561,-0.152961 -0.653561,-0.393991 0,-0.129785 0.06953,-0.264205 0.231759,-0.380084 0.09734,0.02781 0.203948,0.03708 0.292016,0.03708 h 0.389356 c 0.292016,0 0.454247,0.06953 0.454247,0.278111 0,0.236394 -0.282746,0.458883 -0.713817,0.458884 z"
           id="path513"
           style="stroke-width:0.128765" /></g><path
         id="rect1218"
         style="fill:#808080;stroke:#000000;stroke-width:0.025753;stroke-linecap:round;stroke-linejoin:round"
         d="M 77.547066,93.221992 H 95.736975 V 118.47309 H 77.547066 Z" /><path
         id="rect1220"
         style="fill:#d4a018;stroke:#000000;stroke-width:0.025753;stroke-linecap:round;stroke-linejoin:round"
         d="m 79.789833,93.226311 h 1.363868 v 3.809147 h -1.363868 z" /><g
         id="g1234"
         transform="matrix(1,0,0,0.98097968,32.64167,1.0703993)"
         style="stroke-width:0.491366"><path
           id="rect1222"
           style="fill:#ffffff;stroke:#000000;stroke-width:0.0260014;stroke-linecap:round;stroke-linejoin:round"
           d="m 50.775639,97.791878 h 1.486802 v 15.484112 h -1.486802 z" /><path
           id="path1224"
           style="fill:#57e389;stroke:none;stroke-width:0.0260014;stroke-linecap:round;stroke-linejoin:round"
           d="m 50.766804,99.221726 1.497206,-1.05833 v 1.563927 l -1.497206,1.058337 z"
           sodipodi:nodetypes="ccccc" /><path
           id="path1226"
           style="fill:#57e389;stroke:none;stroke-width:0.0260014;stroke-linecap:round;stroke-linejoin:round"
           d="m 50.766804,102.39674 1.497206,-1.05834 v 1.56394 l -1.497206,1.05834 z"
           sodipodi:nodetypes="ccccc" /><path
           id="path1228"
           style="fill:#57e389;stroke:none;stroke-width:0.0260014;stroke-linecap:round;stroke-linejoin:round"
           d="m 50.766804,105.57176 1.497206,-1.05834 v 1.56394 l -1.497206,1.05834 z"
           sodipodi:nodetypes="ccccc" /><path
           id="path1230"
           style="fill:#57e389;stroke:none;stroke-width:0.0260014;stroke-linecap:round;stroke-linejoin:round"
           d="m 50.766804,108.74678 1.497206,-1.05834 v 1.56394 l -1.497206,1.05834 z"
           sodipodi:nodetypes="ccccc" /><path
           id="path1232"
           style="fill:#57e389;stroke:none;stroke-width:0.0260014;stroke-linecap:round;stroke-linejoin:round"
           d="m 50.766804,111.73097 1.497206,-1.05834 v 1.56394 l -1.497206,1.05834 z"
           sodipodi:nodetypes="ccccc" /></g><path
         id="rect1236"
         style="fill:#d4a018;stroke:#000000;stroke-width:0.025753;stroke-linecap:round;stroke-linejoin:round"
         d="m 81.646118,93.226311 h 1.363868 v 3.809147 h -1.363868 z" /><path
         id="rect1238"
         style="fill:#d4a018;stroke:#000000;stroke-width:0.025753;stroke-linecap:round;stroke-linejoin:round"
         d="m 85.343979,93.226311 h 1.363868 v 3.809147 h -1.363868 z" /><path
         id="rect1258"
         style="fill:#1a5fb4;stroke:#000000;stroke-width:0.025753;stroke-linecap:round;stroke-linejoin:round"
         d="m 78.702187,110.81646 h 16.211544 v 17.06532 H 78.702187 Z" /><path
         id="rect1260"
         style="fill:#d4a018;stroke:#000000;stroke-width:0.025753;stroke-linecap:round;stroke-linejoin:round"
         d="m 83.480858,93.226311 h 1.363868 v 3.809147 h -1.363868 z" /><g
         id="g1274"
         transform="matrix(1,0,0,0.98097968,28.981121,1.0278707)"
         style="stroke-width:0.491366"><path
           id="rect1262"
           style="fill:#ffffff;stroke:#000000;stroke-width:0.0260014;stroke-linecap:round;stroke-linejoin:round"
           d="m 50.775639,97.791878 h 1.486802 v 15.484112 h -1.486802 z" /><path
           id="path1264"
           style="fill:#ff7800;stroke:none;stroke-width:0.0260014;stroke-linecap:round;stroke-linejoin:round"
           d="m 50.766804,99.221726 1.497206,-1.05833 v 1.563927 l -1.497206,1.058337 z"
           sodipodi:nodetypes="ccccc" /><path
           id="path1266"
           style="fill:#ff7800;stroke:none;stroke-width:0.0260014;stroke-linecap:round;stroke-linejoin:round"
           d="m 50.766804,102.39674 1.497206,-1.05834 v 1.56394 l -1.497206,1.05834 z"
           sodipodi:nodetypes="ccccc" /><path
           id="path1268"
           style="fill:#ff7800;stroke:none;stroke-width:0.0260014;stroke-linecap:round;stroke-linejoin:round"
           d="m 50.766804,105.57176 1.497206,-1.05834 v 1.56394 l -1.497206,1.05834 z"
           sodipodi:nodetypes="ccccc" /><path
           id="path1270"
           style="fill:#ff7800;stroke:none;stroke-width:0.0260014;stroke-linecap:round;stroke-linejoin:round"
           d="m 50.766804,108.74678 1.497206,-1.05834 v 1.56394 l -1.497206,1.05834 z"
           sodipodi:nodetypes="ccccc" /><path
           id="path1272"
           style="fill:#ff7800;stroke:none;stroke-width:0.0260014;stroke-linecap:round;stroke-linejoin:round"
           d="m 50.766804,111.73097 1.497206,-1.05834 v 1.56394 l -1.497206,1.05834 z"
           sodipodi:nodetypes="ccccc" /></g><path
         id="rect1276"
         style="fill:#d4a018;stroke:#000000;stroke-width:0.025753;stroke-linecap:round;stroke-linejoin:round"
         d="m 87.176483,93.226311 h 1.363868 v 3.809147 h -1.363868 z" /><g
         id="g1290"
         transform="matrix(1,0,0,0.98097968,36.349884,1.0278707)"
         style="stroke-width:0.491366"><path
           id="rect1278"
           style="fill:#ffffff;stroke:#000000;stroke-width:0.0260014;stroke-linecap:round;stroke-linejoin:round"
           d="m 50.775639,97.791878 h 1.486802 v 15.484112 h -1.486802 z" /><path
           id="path1280"
           style="fill:#1a5fb4;stroke:none;stroke-width:0.0260014;stroke-linecap:round;stroke-linejoin:round"
           d="m 50.766804,99.221726 1.497206,-1.05833 v 1.563927 l -1.497206,1.058337 z"
           sodipodi:nodetypes="ccccc" /><path
           id="path1282"
           style="fill:#1a5fb4;stroke:none;stroke-width:0.0260014;stroke-linecap:round;stroke-linejoin:round"
           d="m 50.766804,102.39674 1.497206,-1.05834 v 1.56394 l -1.497206,1.05834 z"
           sodipodi:nodetypes="ccccc" /><path
           id="path1284"
           style="fill:#1a5fb4;stroke:none;stroke-width:0.0260014;stroke-linecap:round;stroke-linejoin:round"
           d="m 50.766804,105.57176 1.497206,-1.05834 v 1.56394 l -1.497206,1.05834 z"
           sodipodi:nodetypes="ccccc" /><path
           id="path1286"
           style="fill:#1a5fb4;stroke:none;stroke-width:0.0260014;stroke-linecap:round;stroke-linejoin:round"
           d="m 50.766804,108.74678 1.497206,-1.05834 v 1.56394 l -1.497206,1.05834 z"
           sodipodi:nodetypes="ccccc" /><path
           id="path1288"
           style="fill:#1a5fb4;stroke:none;stroke-width:0.0260014;stroke-linecap:round;stroke-linejoin:round"
           d="m 50.766804,111.73097 1.497206,-1.05834 v 1.56394 l -1.497206,1.05834 z"
           sodipodi:nodetypes="ccccc" /></g><path
         id="rect1292"
         style="fill:#d4a018;stroke:#000000;stroke-width:0.025753;stroke-linecap:round;stroke-linejoin:round"
         d="m 90.897453,93.226311 h 1.363868 v 3.809147 h -1.363868 z" /><g
         id="g1306"
         transform="matrix(1,0,0,0.98097968,40.054051,1.0278707)"
         style="stroke-width:0.491366"><path
           id="rect1294"
           style="fill:#ffffff;stroke:#000000;stroke-width:0.0260014;stroke-linecap:round;stroke-linejoin:round"
           d="m 50.775639,97.791878 h 1.486802 v 15.484112 h -1.486802 z" /><path
           id="path1296"
           style="fill:#63452c;stroke:none;stroke-width:0.0260014;stroke-linecap:round;stroke-linejoin:round"
           d="m 50.766804,99.221726 1.497206,-1.05833 v 1.563927 l -1.497206,1.058337 z"
           sodipodi:nodetypes="ccccc" /><path
           id="path1298"
           style="fill:#63452c;stroke:none;stroke-width:0.0260014;stroke-linecap:round;stroke-linejoin:round"
           d="m 50.766804,102.39674 1.497206,-1.05834 v 1.56394 l -1.497206,1.05834 z"
           sodipodi:nodetypes="ccccc" /><path
           id="path1300"
           style="fill:#63452c;stroke:none;stroke-width:0.0260014;stroke-linecap:round;stroke-linejoin:round"
           d="m 50.766804,105.57176 1.497206,-1.05834 v 1.56394 l -1.497206,1.05834 z"
           sodipodi:nodetypes="ccccc" /><path
           id="path1302"
           style="fill:#63452c;stroke:none;stroke-width:0.0260014;stroke-linecap:round;stroke-linejoin:round"
           d="m 50.766804,108.74678 1.497206,-1.05834 v 1.56394 l -1.497206,1.05834 z"
           sodipodi:nodetypes="ccccc" /><path
           id="path1304"
           style="fill:#63452c;stroke:none;stroke-width:0.0260014;stroke-linecap:round;stroke-linejoin:round"
           d="m 50.766804,111.73097 1.497206,-1.05834 v 1.56394 l -1.497206,1.05834 z"
           sodipodi:nodetypes="ccccc" /></g><path
         id="rect1308"
         style="fill:#6a6a6a;stroke:#000000;stroke-width:0.025753;stroke-linecap:round;stroke-linejoin:round"
         d="m 77.321198,110.759 h 18.642688 v 8.11535 H 77.321198 Z" /><path
         id="rect1310"
         style="fill:#505050;stroke:#000000;stroke-width:0.025753;stroke-linecap:round;stroke-linejoin:round"
         d="m 79.745697,112.58913 h 14.506634 v 3.83417 H 79.745697 Z" /><path
         id="rect1312"
         style="fill:#d4a018;stroke:#000000;stroke-width:0.025753;stroke-linecap:round;stroke-linejoin:round"
         d="m 92.741493,93.226311 h 1.363868 v 3.809147 h -1.363868 z" /><path
         id="rect1314"
         style="fill:#63452c;stroke-width:0.025753;stroke-linecap:round;stroke-linejoin:round"
         d="m 92.675949,96.966751 h 1.511766 v 13.816409 h -1.511766 z" /><path
         id="rect1316"
         style="fill:#d4a018;stroke:#000000;stroke-width:0.025753;stroke-linecap:round;stroke-linejoin:round"
         d="m 89.044029,93.226311 h 1.363868 v 3.809147 h -1.363868 z" /><path
         id="rect1318"
         style="fill:#ff7800;stroke-width:0.025753;stroke-linecap:round;stroke-linejoin:round"
         d="m 81.558403,96.966751 h 1.511766 v 13.816409 h -1.511766 z" /><path
         id="rect1320"
         style="fill:#1a5fb4;stroke-width:0.025753;stroke-linecap:round;stroke-linejoin:round"
         d="m 85.267616,96.966751 h 1.511766 v 13.816409 h -1.511766 z" /><path
         id="rect1322"
         style="fill:#33d17a;stroke-width:0.025753;stroke-linecap:round;stroke-linejoin:round"
         d="m 88.912941,96.966751 h 1.511766 v 13.816409 h -1.511766 z" /><g
         aria-label="1 2 3 4 5 6 7 8"
         transform="scale(0.8736623,1.144607)"
         id="text1380"
         style="font-size:3.08208px;line-height:0;font-family:'Source Sans Pro';-inkscape-font-specification:'Source Sans Pro';text-align:center;letter-spacing:0px;word-spacing:0px;text-anchor:middle;stroke-width:0.128764"><path
           d="m 91.391288,83.516083 h 1.109549 v -0.209582 h -0.406835 v -1.756785 h -0.194171 c -0.107873,0.06472 -0.23732,0.114037 -0.416081,0.144858 v 0.16335 h 0.357522 v 1.448577 h -0.449984 z"
           id="path448"
           style="stroke-width:0.128764" /><path
           d="m 93.419292,83.516083 h 1.269817 v -0.218828 h -0.570185 c -0.101708,0 -0.22191,0.0092 -0.329782,0.01849 0.465394,-0.486969 0.80134,-0.853737 0.80134,-1.223586 0,-0.348275 -0.224991,-0.579431 -0.588677,-0.579431 -0.255812,0 -0.431491,0.120201 -0.594841,0.298962 l 0.144858,0.144857 c 0.114036,-0.132529 0.255812,-0.23732 0.419162,-0.23732 0.249649,0 0.372932,0.160268 0.372932,0.38526 0,0.317454 -0.332865,0.671894 -0.924624,1.260571 z"
           id="path450"
           style="stroke-width:0.128764" /><path
           d="m 96.171585,83.553068 c 0.360603,0 0.647237,-0.212664 0.647237,-0.560939 0,-0.271223 -0.188007,-0.443819 -0.425327,-0.499297 v -0.01233 c 0.212663,-0.08013 0.357521,-0.231156 0.357521,-0.468476 0,-0.317454 -0.246566,-0.499297 -0.588677,-0.499297 -0.231156,0 -0.412999,0.104791 -0.564021,0.246566 l 0.135612,0.160268 c 0.117119,-0.117119 0.255812,-0.200335 0.419163,-0.200335 0.209581,0 0.339028,0.120201 0.339028,0.31129 0,0.2065 -0.138693,0.366768 -0.557856,0.366768 v 0.194171 c 0.468476,0 0.628744,0.157186 0.628744,0.391424 0,0.218828 -0.169514,0.360603 -0.406834,0.360603 -0.231156,0 -0.38526,-0.110955 -0.502379,-0.234238 l -0.129448,0.166433 c 0.13253,0.144857 0.332865,0.277387 0.647237,0.277387 z"
           id="path452"
           style="stroke-width:0.128764" /><path
           d="m 98.529372,83.516083 h 0.240402 v -0.542446 h 0.268141 v -0.203418 h -0.268141 v -1.220503 h -0.283551 l -0.841408,1.257488 v 0.166433 h 0.884557 z m -0.616416,-0.745864 0.45923,-0.671893 c 0.05548,-0.09554 0.110955,-0.181843 0.160268,-0.277387 h 0.01233 c -0.0062,0.104791 -0.01541,0.274305 -0.01541,0.379096 v 0.570184 z"
           id="path454"
           style="stroke-width:0.128764" /><path
           d="m 100.46183,83.553068 c 0.34211,0 0.66265,-0.240403 0.66265,-0.66573 0,-0.425327 -0.27431,-0.616416 -0.61025,-0.616416 -0.1202,0 -0.20958,0.03082 -0.30205,0.08013 l 0.0524,-0.582514 h 0.76127 v -0.218827 h -0.98318 l -0.06472,0.946198 0.13562,0.0863 c 0.11712,-0.07705 0.20033,-0.120202 0.33594,-0.120202 0.25273,0 0.41917,0.160269 0.41917,0.431492 0,0.274305 -0.19109,0.449983 -0.4315,0.449983 -0.23115,0 -0.37909,-0.107873 -0.496215,-0.224992 l -0.123283,0.166433 c 0.135611,0.135611 0.329788,0.268141 0.644158,0.268141 z"
           id="path456"
           style="stroke-width:0.128764" /><path
           d="m 102.71483,83.553068 c 0.31745,0 0.58251,-0.255813 0.58251,-0.631827 0,-0.403752 -0.22191,-0.607169 -0.56094,-0.607169 -0.16027,0 -0.33594,0.09554 -0.45923,0.246566 0.0123,-0.62258 0.24349,-0.835244 0.51779,-0.835244 0.12329,0 0.24349,0.05856 0.32362,0.154104 l 0.14178,-0.157186 c -0.11096,-0.120201 -0.26198,-0.209581 -0.47464,-0.209581 -0.39143,0 -0.74895,0.305126 -0.74895,1.094138 0,0.631827 0.2928,0.946199 0.67806,0.946199 z m 0,-0.200335 c -0.24965,0 -0.40067,-0.2065 -0.43149,-0.588678 0.12328,-0.181842 0.28355,-0.258894 0.40991,-0.258894 0.24349,0 0.36369,0.160268 0.36369,0.41608 0,0.258895 -0.14794,0.431492 -0.34211,0.431492 z"
           id="path458"
           style="stroke-width:0.128764" /><path
           d="m 104.58256,83.516083 h 0.26198 c 0.0339,-0.767438 0.12945,-1.21434 0.59484,-1.809181 v -0.157186 h -1.26673 v 0.218827 h 0.9801 c -0.38834,0.539364 -0.53628,1.007841 -0.57019,1.74754 z"
           id="path460"
           style="stroke-width:0.128764" /><path
           d="m 106.95576,83.553068 c 0.38218,0 0.63491,-0.231156 0.63491,-0.523954 0,-0.265059 -0.16643,-0.403752 -0.34211,-0.505461 v -0.01233 c 0.1202,-0.09246 0.27122,-0.268141 0.27122,-0.474641 0,-0.305125 -0.21266,-0.523953 -0.55477,-0.523953 -0.31746,0 -0.55786,0.203417 -0.55786,0.505461 0,0.206499 0.12945,0.351357 0.27431,0.453066 v 0.01233 c -0.18493,0.09863 -0.36985,0.274305 -0.36985,0.530118 0,0.31129 0.2743,0.539364 0.64415,0.539364 z m 0.13869,-1.109549 c -0.23732,-0.09246 -0.45306,-0.191089 -0.45306,-0.425327 0,-0.191089 0.13561,-0.317454 0.31745,-0.317454 0.21575,0 0.34211,0.154104 0.34211,0.348275 0,0.144857 -0.074,0.277387 -0.2065,0.394506 z m -0.13252,0.921542 c -0.24041,0 -0.42225,-0.157186 -0.42225,-0.376014 0,-0.178761 0.11712,-0.323618 0.27431,-0.428409 0.28355,0.114037 0.5332,0.206499 0.5332,0.45923 0,0.203417 -0.15719,0.345193 -0.38526,0.345193 z"
           id="path462"
           style="stroke-width:0.128764" /></g><g
         aria-label="VIA-568A"
         id="text1468"
         style="font-size:3.52777px;line-height:0;font-family:'Source Sans Pro';-inkscape-font-specification:'Source Sans Pro';text-align:center;letter-spacing:0px;word-spacing:0px;text-anchor:middle;fill:#d6d6d6;stroke-width:0.128764"><path
           d="m 49.502587,115.48918 h 0.342194 l 0.733776,-2.31422 h -0.299861 l -0.370415,1.24883 c -0.08114,0.27517 -0.137583,0.49389 -0.22225,0.76553 h -0.01411 c -0.08819,-0.27164 -0.141111,-0.49036 -0.225777,-0.76553 l -0.370416,-1.24883 h -0.313972 z"
           id="path431"
           style="stroke-width:0.128764" /><path
           d="m 50.896054,115.48918 h 0.292805 v -2.31422 h -0.292805 z"
           id="path433"
           style="stroke-width:0.128764" /><path
           d="m 52.222491,114.19449 c 0.08467,-0.25753 0.158749,-0.51153 0.229305,-0.77964 h 0.01411 c 0.07408,0.26811 0.148166,0.52211 0.232833,0.77964 l 0.10936,0.35278 h -0.69497 z m -0.705554,1.29469 h 0.29986 l 0.22225,-0.70555 h 0.843137 l 0.218721,0.70555 h 0.313972 l -0.783165,-2.31422 h -0.331611 z"
           id="path435"
           style="stroke-width:0.128764" /><path
           d="m 53.570094,114.7166 h 0.811387 v -0.22225 h -0.811387 z"
           id="path437"
           style="stroke-width:0.128764" /><path
           d="m 55.348086,115.53151 c 0.391583,0 0.758471,-0.27516 0.758471,-0.76199 0,-0.48684 -0.313972,-0.70556 -0.698499,-0.70556 -0.137583,0 -0.239888,0.0353 -0.345721,0.0917 l 0.05997,-0.66674 h 0.871359 v -0.25048 H 54.86831 l -0.07408,1.08303 0.155222,0.0988 c 0.134056,-0.0882 0.229305,-0.13759 0.384527,-0.13759 0.289277,0 0.479777,0.18345 0.479777,0.49389 0,0.31397 -0.218722,0.51506 -0.493888,0.51506 -0.264583,0 -0.433916,-0.12348 -0.567971,-0.25753 l -0.141111,0.1905 c 0.155222,0.15522 0.377472,0.30691 0.737304,0.30691 z"
           id="path439"
           style="stroke-width:0.128764" /><path
           d="m 57.221332,115.53151 c 0.36336,0 0.666748,-0.2928 0.666748,-0.72319 0,-0.46214 -0.253999,-0.69497 -0.642054,-0.69497 -0.183444,0 -0.384527,0.10936 -0.525638,0.28222 0.01411,-0.71261 0.278694,-0.95602 0.592666,-0.95602 0.14111,0 0.278693,0.067 0.370415,0.17639 l 0.162278,-0.17992 c -0.127,-0.13758 -0.299861,-0.23989 -0.543277,-0.23989 -0.448026,0 -0.857248,0.34925 -0.857248,1.25236 0,0.72319 0.335138,1.08302 0.77611,1.08302 z m 0,-0.2293 c -0.28575,0 -0.45861,-0.23636 -0.493888,-0.6738 0.141111,-0.20814 0.324555,-0.29634 0.469193,-0.29634 0.278694,0 0.416277,0.18345 0.416277,0.47625 0,0.29633 -0.169333,0.49389 -0.391582,0.49389 z"
           id="path441"
           style="stroke-width:0.128764" /><path
           d="m 58.911133,115.53151 c 0.437443,0 0.726721,-0.26458 0.726721,-0.59972 0,-0.30338 -0.1905,-0.46213 -0.391583,-0.57855 v -0.0141 c 0.137583,-0.10583 0.310444,-0.30692 0.310444,-0.54328 0,-0.34925 -0.243416,-0.59972 -0.634999,-0.59972 -0.36336,0 -0.638526,0.23283 -0.638526,0.57856 0,0.23636 0.148166,0.40216 0.313971,0.51858 v 0.0141 c -0.211666,0.11289 -0.423332,0.31397 -0.423332,0.60678 0,0.3563 0.313972,0.61735 0.737304,0.61735 z m 0.15875,-1.26999 c -0.271639,-0.10584 -0.518583,-0.21872 -0.518583,-0.48683 0,-0.21873 0.155222,-0.36337 0.363361,-0.36337 0.246944,0 0.391582,0.17639 0.391582,0.39864 0,0.16581 -0.08467,0.3175 -0.23636,0.45156 z m -0.151695,1.0548 c -0.275166,0 -0.483304,-0.17992 -0.483304,-0.43039 0,-0.20461 0.134055,-0.37041 0.313971,-0.49036 0.324555,0.13053 0.610305,0.23636 0.610305,0.52564 0,0.23283 -0.179917,0.39511 -0.440972,0.39511 z"
           id="path443"
           style="stroke-width:0.128764" /><path
           d="m 60.498628,114.19449 c 0.08467,-0.25753 0.15875,-0.51153 0.229305,-0.77964 h 0.01411 c 0.07408,0.26811 0.148166,0.52211 0.232832,0.77964 l 0.109361,0.35278 h -0.69497 z m -0.705554,1.29469 h 0.299861 l 0.222249,-0.70555 h 0.843137 l 0.218722,0.70555 h 0.313972 l -0.783165,-2.31422 h -0.331611 z"
           id="path445"
           style="stroke-width:0.128764" /></g><g
         aria-label="VIA-568B"
         id="text1472"
         style="font-size:3.52777px;line-height:0;font-family:'Source Sans Pro';-inkscape-font-specification:'Source Sans Pro';text-align:center;letter-spacing:0px;word-spacing:0px;text-anchor:middle;fill:#d6d6d6;stroke-width:0.128764"><path
           d="m 81.174967,115.48918 h 0.342194 l 0.733776,-2.31422 h -0.29986 l -0.370416,1.24883 c -0.08114,0.27517 -0.137583,0.49389 -0.22225,0.76553 H 81.3443 c -0.08819,-0.27164 -0.14111,-0.49036 -0.225777,-0.76553 l -0.370416,-1.24883 h -0.313971 z"
           id="path414"
           style="stroke-width:0.128764" /><path
           d="m 82.568434,115.48918 h 0.292805 v -2.31422 h -0.292805 z"
           id="path416"
           style="stroke-width:0.128764" /><path
           d="m 83.894871,114.19449 c 0.08467,-0.25753 0.15875,-0.51153 0.229305,-0.77964 h 0.01411 c 0.07408,0.26811 0.148166,0.52211 0.232833,0.77964 l 0.109361,0.35278 h -0.69497 z m -0.705554,1.29469 h 0.29986 l 0.22225,-0.70555 h 0.843137 l 0.218722,0.70555 h 0.313971 l -0.783165,-2.31422 h -0.33161 z"
           id="path418"
           style="stroke-width:0.128764" /><path
           d="m 85.242474,114.7166 h 0.811387 v -0.22225 h -0.811387 z"
           id="path420"
           style="stroke-width:0.128764" /><path
           d="m 87.020467,115.53151 c 0.391582,0 0.75847,-0.27516 0.75847,-0.76199 0,-0.48684 -0.313971,-0.70556 -0.698498,-0.70556 -0.137583,0 -0.239889,0.0353 -0.345722,0.0917 l 0.05997,-0.66674 h 0.87136 v -0.25048 H 86.54069 l -0.07408,1.08303 0.155222,0.0988 c 0.134055,-0.0882 0.229305,-0.13759 0.384527,-0.13759 0.289277,0 0.479776,0.18345 0.479776,0.49389 0,0.31397 -0.218721,0.51506 -0.493888,0.51506 -0.264582,0 -0.433915,-0.12348 -0.567971,-0.25753 l -0.14111,0.1905 c 0.155222,0.15522 0.377471,0.30691 0.737304,0.30691 z"
           id="path422"
           style="stroke-width:0.128764" /><path
           d="m 88.893712,115.53151 c 0.36336,0 0.666748,-0.2928 0.666748,-0.72319 0,-0.46214 -0.253999,-0.69497 -0.642054,-0.69497 -0.183444,0 -0.384527,0.10936 -0.525637,0.28222 0.01411,-0.71261 0.278693,-0.95602 0.592665,-0.95602 0.141111,0 0.278694,0.067 0.370416,0.17639 l 0.162277,-0.17992 c -0.126999,-0.13758 -0.29986,-0.23989 -0.543276,-0.23989 -0.448027,0 -0.857248,0.34925 -0.857248,1.25236 0,0.72319 0.335138,1.08302 0.776109,1.08302 z m 0,-0.2293 c -0.285749,0 -0.45861,-0.23636 -0.493888,-0.6738 0.141111,-0.20814 0.324555,-0.29634 0.469194,-0.29634 0.278693,0 0.416276,0.18345 0.416276,0.47625 0,0.29633 -0.169333,0.49389 -0.391582,0.49389 z"
           id="path424"
           style="stroke-width:0.128764" /><path
           d="m 90.583513,115.53151 c 0.437444,0 0.726721,-0.26458 0.726721,-0.59972 0,-0.30338 -0.1905,-0.46213 -0.391583,-0.57855 v -0.0141 c 0.137583,-0.10583 0.310444,-0.30692 0.310444,-0.54328 0,-0.34925 -0.243416,-0.59972 -0.634998,-0.59972 -0.363361,0 -0.638527,0.23283 -0.638527,0.57856 0,0.23636 0.148167,0.40216 0.313972,0.51858 v 0.0141 c -0.211667,0.11289 -0.423333,0.31397 -0.423333,0.60678 0,0.3563 0.313972,0.61735 0.737304,0.61735 z m 0.15875,-1.26999 c -0.271638,-0.10584 -0.518582,-0.21872 -0.518582,-0.48683 0,-0.21873 0.155222,-0.36337 0.36336,-0.36337 0.246944,0 0.391582,0.17639 0.391582,0.39864 0,0.16581 -0.08467,0.3175 -0.23636,0.45156 z m -0.151694,1.0548 c -0.275166,0 -0.483305,-0.17992 -0.483305,-0.43039 0,-0.20461 0.134056,-0.37041 0.313972,-0.49036 0.324555,0.13053 0.610304,0.23636 0.610304,0.52564 0,0.23283 -0.179916,0.39511 -0.440971,0.39511 z"
           id="path426"
           style="stroke-width:0.128764" /><path
           d="m 91.772371,115.48918 h 0.737304 c 0.518582,0 0.878414,-0.22225 0.878414,-0.67733 0,-0.3175 -0.194027,-0.50094 -0.472721,-0.55386 v -0.0141 c 0.218722,-0.0706 0.338666,-0.27517 0.338666,-0.50447 0,-0.4057 -0.324555,-0.56445 -0.793748,-0.56445 h -0.687915 z m 0.292805,-1.32997 v -0.75141 h 0.356304 c 0.359833,0 0.543277,0.1023 0.543277,0.37041 0,0.23636 -0.162277,0.381 -0.557388,0.381 z m 0,1.09714 v -0.87136 h 0.402165 c 0.405694,0 0.631471,0.13053 0.631471,0.41628 0,0.31044 -0.232833,0.45508 -0.631471,0.45508 z"
           id="path428"
           style="stroke-width:0.128764" /></g></g></g></svg>
