<?xml version="1.0" encoding="UTF-8" standalone="no"?>
<!-- Created with Inkscape (http://www.inkscape.org/) -->

<svg
   width="35.986877mm"
   height="39.023113mm"
   version="1.1"
   viewBox="0 0 35.986875 39.023114"
   id="svg46"
   sodipodi:docname="Server-Client.svg"
   inkscape:version="1.2.1 (8a69933317, 2022-10-28, custom)"
   inkscape:export-filename="../c0fb8d/Peer-to-Peer.png"
   inkscape:export-xdpi="299"
   inkscape:export-ydpi="299"
   xmlns:inkscape="http://www.inkscape.org/namespaces/inkscape"
   xmlns:sodipodi="http://sodipodi.sourceforge.net/DTD/sodipodi-0.dtd"
   xmlns="http://www.w3.org/2000/svg"
   xmlns:svg="http://www.w3.org/2000/svg"
   xmlns:rdf="http://www.w3.org/1999/02/22-rdf-syntax-ns#"
   xmlns:cc="http://creativecommons.org/ns#"
   xmlns:dc="http://purl.org/dc/elements/1.1/">
  <defs
     id="defs50" />
  <sodipodi:namedview
     id="namedview48"
     pagecolor="#c7c7c7"
     bordercolor="#ffffff"
     borderopacity="1"
     inkscape:showpageshadow="0"
     inkscape:pageopacity="1"
     inkscape:pagecheckerboard="1"
     inkscape:deskcolor="#626262"
     inkscape:document-units="mm"
     showgrid="false"
     inkscape:zoom="4.1536004"
     inkscape:cx="32.6223"
     inkscape:cy="57.781196"
     inkscape:window-width="1920"
     inkscape:window-height="1017"
     inkscape:window-x="0"
     inkscape:window-y="27"
     inkscape:window-maximized="1"
     inkscape:current-layer="svg46" />
  <metadata
     id="metadata18">
    <rdf:RDF>
      <cc:Work
         rdf:about="">
        <dc:format>image/svg+xml</dc:format>
        <dc:type
           rdf:resource="http://purl.org/dc/dcmitype/StillImage" />
      </cc:Work>
    </rdf:RDF>
  </metadata>
  <g
     id="g2531"
     transform="matrix(1.7019707,0,0,1.7019707,-7.779739,-6.4749941)">
    <path
       style="fill:#ffffff;stroke:none;stroke-width:0.264583px;stroke-linecap:butt;stroke-linejoin:miter;stroke-opacity:1"
       d="m 21.544309,12.435964 0.0142,2.410777 0.06287,0.08103 -0.644515,1.232592 c 0,0 -0.0018,0.231306 0.02272,0.231545 0.02456,2.4e-4 4.589917,-0.0065 4.589917,-0.0065 l 0.07524,-0.284936 -0.54089,-1.053449 -0.216284,-0.148765 0.245092,-0.171162 -0.1041,-2.304607 z"
       id="path2522" />
    <g
       transform="matrix(0.14760103,0,0,0.14760103,16.589599,-0.0012587)"
       id="g410">
      <g
         transform="matrix(0.33247,0,0,0.33247,28.912,81.732)"
         stroke-width="0.79583"
         id="g408">
        <g
           stroke-width="0.79583"
           id="g406">
          <path
             d="m 98.656,80.699 -9.375,-18.5 c -0.521,-1.546 -1.59,-2.9 -2.932,-3.884 1.209,-1.048 1.988,-2.574 1.988,-4.294 V 10.709 C 88.338,7.56 85.776,5 82.631,5 H 17.367 c -3.148,0 -5.708,2.56 -5.708,5.709 v 43.312 c 0,1.721 0.782,3.248 1.989,4.295 -1.34,0.983 -2.408,2.338 -2.929,3.883 L 1.344,80.698 c -0.633,1.877 -0.386,7.751 0.68,9.232 1.064,1.482 2.809,2.332 4.789,2.332 h 86.375 c 1.979,0 3.725,-0.85 4.789,-2.332 1.065,-1.481 1.311,-7.355 0.679,-9.231 z m -5.468,4.345 H 6.812 c -1.915,0 -2.979,-1.485 -2.368,-3.299 l 9.375,-18.498 c 0.614,-1.812 2.678,-3.297 4.592,-3.297 h 63.176 c 1.913,0 3.979,1.484 4.591,3.297 l 9.375,18.498 c 0.612,1.814 -0.453,3.299 -2.365,3.299 z M 14.932,10.709 c 0,-1.344 1.092,-2.436 2.435,-2.436 h 65.264 c 1.342,0 2.436,1.092 2.436,2.436 v 43.312 c 0,1.343 -1.094,2.435 -2.436,2.435 H 17.367 c -1.342,0 -2.435,-1.092 -2.435,-2.435 z"
             id="path400" />
          <path
             d="m 61.964,72.913 c -0.12,-0.828 -0.937,-1.478 -1.855,-1.478 h -20.22 c -0.92,0 -1.736,0.649 -1.855,1.479 l -1.656,6.943 c -0.062,0.426 0.076,0.852 0.38,1.165 0.302,0.313 0.748,0.494 1.224,0.494 h 24.032 c 0.477,0 0.924,-0.181 1.225,-0.494 0.304,-0.313 0.441,-0.739 0.379,-1.165 z"
             id="path402" />
          <path
             d="m 20.273,54.055 h 59.453 c 1.831,0 3.329,-1.499 3.329,-3.332 V 14.005 c 0,-1.831 -1.498,-3.33 -3.329,-3.33 H 20.273 c -1.832,0 -3.33,1.499 -3.33,3.33 v 36.718 c 0,1.833 1.498,3.332 3.33,3.332 z"
             id="path404" />
        </g>
      </g>
    </g>
  </g>
  <g
     id="g3147"
     transform="translate(23.056364,18.221471)">
    <rect
       style="fill:#f6f5f4;stroke:none;stroke-width:0.315219;stroke-linecap:round;stroke-linejoin:round;stroke-dasharray:none"
       id="rect1630"
       width="5.2468867"
       height="3.7384598"
       x="0.89919674"
       y="14.124561" />
    <rect
       style="fill:#ffffff;stroke:none;stroke-width:0.315219;stroke-linecap:round;stroke-linejoin:round;stroke-dasharray:none"
       id="rect1628"
       width="1.3106692"
       height="1.2626392"
       x="7.3176389"
       y="19.296265"
       rx="0.90062612"
       ry="0.84771204" />
    <path
       style="fill:#ffffff;stroke:none;stroke-width:0.450312px;stroke-linecap:butt;stroke-linejoin:miter;stroke-opacity:1"
       d="m 0.8684821,18.398288 5.2537031,-0.025 0.8445554,1.943148 -6.91906825,0.01293 z"
       id="path1541" />
    <g
       id="g346"
       transform="matrix(0.21955233,0,0,0.21955233,-0.1056187,13.909146)">
      <path
         d="m 4.8679,19.975 c -0.80926,0.2149 -1.3298,0.77731 -1.503,1.291 L 0.248,27.4164 c -0.21045,0.62405 -0.12833,2.577 0.22608,3.0694 0.35375,0.49272 0.93391,0.77532 1.5922,0.77532 h 28.717 c 0.65796,0 1.2385,-0.2826 1.5922,-0.77532 0.35408,-0.49239 0.43587,-2.4453 0.22575,-3.069 l -3.1169,-6.1507 c -0.17322,-0.514 -0.72202,-1.0761 -1.504,-1.2913 -8.057,3.1e-5 -15.056,3.44e-4 -23.113,3.44e-4 z m 25.915,8.8863 H 2.0659 c -0.63668,0 -0.99043,-0.49372 -0.78729,-1.0968 l 3.1169,-6.15 c 0.20414,-0.60244 0.89035,-1.0962 1.5267,-1.0962 h 21.004 c 0.63602,0 1.3229,0.49339 1.5264,1.0962 l 3.1169,6.15 c 0.20347,0.6031 -0.15061,1.0968 -0.78629,1.0968 v 0"
         stroke="#000000"
         stroke-linecap="round"
         stroke-linejoin="round"
         stroke-width="0.26458"
         id="path20"
         style="fill:#000000" />
      <g
         stroke-width="0.26459"
         id="g30">
        <path
           d="m 27.222,18.591 c 1.1968,0.04853 1.9487,-0.99607 1.9487,-2.1604 v -14.4 C 29.171034,0.9837 28.31924,0.1325 27.2736,0.1325 H 5.5756 c -1.0466,0 -1.8977,0.85112 -1.8977,1.8981 v 14.4 c 0,1.7766 1.0022,2.1409 1.9489,2.1603 z M 4.765,2.163 c 0,-0.44684 0.36306,-0.8099 0.80956,-0.8099 h 21.698 c 0.44618,0 0.8099,0.36306 0.8099,0.8099 v 14.4 c 0,0.44651 -0.36372,0.80956 -0.8099,0.80956 H 5.57456 C 5.12839,17.37256 4.765,17.0095 4.765,16.563 v -14.4"
           stroke="#000000"
           id="path22"
           style="fill:#000000" />
        <path
           d="m 30.922,28.326 c 0.19785,-0.07123 0.30678,-0.35274 0.1726,-0.60523 l -3.3674,-6.337 c -0.13447,-0.25304 -0.35647,-0.47742 -0.58114,-0.47575 l -2.2038,-0.01064 c -0.28637,0.05106 -0.29152,0.2723 -0.24636,0.54002 l 1.7542,6.5293 c 0.15446,0.32573 0.34894,0.38934 0.59939,0.39474 z"
           id="path24" />
        <path
           d="m 6.5411,16.574 h 19.766 c 0.60875,0 1.1068,-0.49837 1.1068,-1.1078 V 3.2582 c 0,-0.60875 -0.49804,-1.1071 -1.1068,-1.1071 H 6.5411 c -0.60908,0 -1.1071,0.49837 -1.1071,1.1071 v 12.208 c 0,0.60942 0.49804,1.1078 1.1071,1.1078 z"
           id="path26" />
        <path
           d="m 25.63,28.326 c 0.19785,-0.07123 0.24454,-0.3285 0.1726,-0.60523 l -1.6326,-6.281 c -0.07209,-0.27734 -0.35647,-0.5339 -0.58114,-0.53223 H 6.21686 C 5.93049,20.9586 5.5081,21.08577 5.32941,21.40945 l -3.1704,6.4454 c 0.15446,0.32573 0.34894,0.38934 0.59939,0.39474 z"
           id="path28" />
      </g>
      <g
         transform="matrix(0.14524,0.06144,-0.083735,0.13478,47.264,28.731)"
         stroke-linejoin="round"
         stroke-width="6.3602"
         id="g44">
        <path
           d="m -92.371,2.9745 c 0.33608,4.6336 1.5796,7.5961 5.0456,11.257 6.526,5.9455 12.989,13.395 14.581,15.888 -1.7296,-12.011 -8.7185,-17.306 -19.627,-27.145 z m 0,0 c 9.5162,9.8373 16.92,12.14 19.627,27.145 3.3767,2.9012 6.7534,4.9335 10.13,5.9356 3.5513,0.58288 6.9983,0.64437 10.13,-0.87055 3.1556,-1.4445 6.4258,-2.7907 8.1516,-5.4608 0.97607,-2.1311 2.5199,-3.1424 1.2663,-8.2307 -2.5527,-9.4994 -7.2641,-18.135 -17.174,-24.692 -4.8435,-2.4039 -9.4585,-5.4553 -15.512,-4.4319 -4.0098,1.1587 -8.5736,3.0405 -12.583,5.4608 -1.735,1.3251 -3.3987,2.5237 -4.0362,5.1442 z"
           fill="none"
           stroke="#000000"
           stroke-width="5.3849"
           id="path32" />
        <g
           stroke-linecap="round"
           id="g42">
          <path
             d="m -62.02,-2.2884 c -6.1432,-4.1219 -9.7271,-4.0819 -11.238,-4.3528 -0.86696,0.30365 -1.8915,-0.50149 -7.1227,1.7807 5.8493,2.0378 7.9602,4.3142 12.188,6.9644 z"
             stroke="#000000"
             stroke-width="5.3849"
             id="path34" />
          <ellipse
             transform="matrix(0.96688,0.25523,0,1,0,0)"
             cx="-79.307999"
             cy="18.309999"
             rx="3.5822999"
             ry="2.4384999"
             stroke="#ffffff"
             stroke-width="5.4764"
             id="ellipse36" />
          <ellipse
             transform="matrix(0.96707,0.2545,0,1,0,0)"
             cx="-80.125999"
             cy="19.299999"
             rx="3.2939"
             ry="2.2356999"
             stroke="#ffffff"
             stroke-width="5.4758"
             id="ellipse38" />
          <path
             d="m -90.59,2.5788 c 1.9787,-3.4171 5.8877,-5.657 8.5868,-6.3709 3.4217,0.5585 8.4374,4.1194 12.583,6.6479 -4.6379,2.5223 -8.124,4.6444 -13.177,6.6479 z"
             stroke="#000000"
             stroke-width="5.3849"
             id="path40" />
        </g>
      </g>
    </g>
    <rect
       style="fill:#ffffff;stroke:none;stroke-width:0.315219;stroke-linecap:round;stroke-linejoin:round;stroke-dasharray:none"
       id="rect2412"
       width="1.3106692"
       height="1.2626392"
       x="7.3176389"
       y="19.296265"
       rx="0.90062612"
       ry="0.84771204" />
    <path
       d="m 0.9631401,18.294704 c -0.17767485,0.04718 -0.29196065,0.17066 -0.3299871,0.283441 l -0.68432276,1.350335 c -0.0462051,0.137009 -0.02817443,0.565787 0.04963627,0.673894 0.07766603,0.108177 0.20504203,0.170224 0.34957117,0.170224 H 6.6529221 c 0.1444565,0 0.2719155,-0.06205 0.3495712,-0.170224 0.077739,-0.108109 0.095697,-0.536871 0.049563,-0.673805 L 6.3677346,18.578168 C 6.3297041,18.465327 6.2092131,18.341908 6.037528,18.29466 c -1.7689331,7e-6 -3.30558,7.5e-5 -5.074513,7.5e-5 z m 5.6896986,1.951008 H 0.34795445 c -0.13978456,0 -0.21745127,-0.108398 -0.17285129,-0.240805 l 0.68432259,-1.350246 c 0.0448197,-0.13226 0.19547845,-0.240674 0.33519055,-0.240674 h 4.6114772 c 0.1396399,0 0.2904457,0.10833 0.3351246,0.240674 l 0.6843226,1.350246 c 0.044672,0.132414 -0.033068,0.240805 -0.1726317,0.240805 v 0"
       stroke="#000000"
       stroke-linecap="round"
       stroke-linejoin="round"
       stroke-width="0.0580891"
       id="path2414"
       style="fill:#000000" />
    <g
       stroke-width="0.26459"
       id="g2424"
       transform="matrix(0.21955233,0,0,0.21955233,-0.1056187,13.909146)">
      <path
         d="m 27.222,18.591 c 1.1968,0.04853 1.9487,-0.99607 1.9487,-2.1604 v -14.4 C 29.171034,0.9837 28.31924,0.1325 27.2736,0.1325 H 5.5756 c -1.0466,0 -1.8977,0.85112 -1.8977,1.8981 v 14.4 c 0,1.7766 1.0022,2.1409 1.9489,2.1603 z M 4.765,2.163 c 0,-0.44684 0.36306,-0.8099 0.80956,-0.8099 h 21.698 c 0.44618,0 0.8099,0.36306 0.8099,0.8099 v 14.4 c 0,0.44651 -0.36372,0.80956 -0.8099,0.80956 H 5.57456 C 5.12839,17.37256 4.765,17.0095 4.765,16.563 v -14.4"
         stroke="#000000"
         id="path2416"
         style="fill:#000000" />
      <path
         d="m 30.922,28.326 c 0.19785,-0.07123 0.30678,-0.35274 0.1726,-0.60523 l -3.3674,-6.337 c -0.13447,-0.25304 -0.35647,-0.47742 -0.58114,-0.47575 l -2.2038,-0.01064 c -0.28637,0.05106 -0.29152,0.2723 -0.24636,0.54002 l 1.7542,6.5293 c 0.15446,0.32573 0.34894,0.38934 0.59939,0.39474 z"
         id="path2418" />
      <path
         d="m 6.5411,16.574 h 19.766 c 0.60875,0 1.1068,-0.49837 1.1068,-1.1078 V 3.2582 c 0,-0.60875 -0.49804,-1.1071 -1.1068,-1.1071 H 6.5411 c -0.60908,0 -1.1071,0.49837 -1.1071,1.1071 v 12.208 c 0,0.60942 0.49804,1.1078 1.1071,1.1078 z"
         id="path2420" />
      <path
         d="m 25.63,28.326 c 0.19785,-0.07123 0.24454,-0.3285 0.1726,-0.60523 l -1.6326,-6.281 c -0.07209,-0.27734 -0.35647,-0.5339 -0.58114,-0.53223 H 6.21686 C 5.93049,20.9586 5.5081,21.08577 5.32941,21.40945 l -3.1704,6.4454 c 0.15446,0.32573 0.34894,0.38934 0.59939,0.39474 z"
         id="path2422" />
    </g>
    <g
       transform="matrix(0.03188778,0.01348929,-0.01838421,0.02959126,10.271303,20.217104)"
       stroke-linejoin="round"
       stroke-width="6.3602"
       id="g2438">
      <path
         d="m -92.371,2.9745 c 0.33608,4.6336 1.5796,7.5961 5.0456,11.257 6.526,5.9455 12.989,13.395 14.581,15.888 -1.7296,-12.011 -8.7185,-17.306 -19.627,-27.145 z m 0,0 c 9.5162,9.8373 16.92,12.14 19.627,27.145 3.3767,2.9012 6.7534,4.9335 10.13,5.9356 3.5513,0.58288 6.9983,0.64437 10.13,-0.87055 3.1556,-1.4445 6.4258,-2.7907 8.1516,-5.4608 0.97607,-2.1311 2.5199,-3.1424 1.2663,-8.2307 -2.5527,-9.4994 -7.2641,-18.135 -17.174,-24.692 -4.8435,-2.4039 -9.4585,-5.4553 -15.512,-4.4319 -4.0098,1.1587 -8.5736,3.0405 -12.583,5.4608 -1.735,1.3251 -3.3987,2.5237 -4.0362,5.1442 z"
         fill="none"
         stroke="#000000"
         stroke-width="5.3849"
         id="path2426" />
      <g
         stroke-linecap="round"
         id="g2436">
        <path
           d="m -62.02,-2.2884 c -6.1432,-4.1219 -9.7271,-4.0819 -11.238,-4.3528 -0.86696,0.30365 -1.8915,-0.50149 -7.1227,1.7807 5.8493,2.0378 7.9602,4.3142 12.188,6.9644 z"
           stroke="#000000"
           stroke-width="5.3849"
           id="path2428" />
        <ellipse
           transform="matrix(0.96688,0.25523,0,1,0,0)"
           cx="-79.307999"
           cy="18.309999"
           rx="3.5822999"
           ry="2.4384999"
           stroke="#ffffff"
           stroke-width="5.4764"
           id="ellipse2430" />
        <ellipse
           transform="matrix(0.96707,0.2545,0,1,0,0)"
           cx="-80.125999"
           cy="19.299999"
           rx="3.2939"
           ry="2.2356999"
           stroke="#ffffff"
           stroke-width="5.4758"
           id="ellipse2432" />
        <path
           d="m -90.59,2.5788 c 1.9787,-3.4171 5.8877,-5.657 8.5868,-6.3709 3.4217,0.5585 8.4374,4.1194 12.583,6.6479 -4.6379,2.5223 -8.124,4.6444 -13.177,6.6479 z"
           stroke="#000000"
           stroke-width="5.3849"
           id="path2434" />
      </g>
    </g>
    <g
       id="g2477"
       transform="matrix(1.7019707,0,0,1.7019707,-16.575235,-10.741198)">
      <rect
         style="fill:#000000;stroke-width:0.513386;stroke-linecap:round;stroke-linejoin:round"
         id="rect644"
         width="2.3491492"
         height="3.8633268"
         x="7.536624"
         y="13.192607"
         rx="0.52916664"
         ry="0.49807677" />
      <g
         id="g1313"
         transform="translate(0,-0.03865594)">
        <rect
           style="fill:#000000;stroke:#ffffff;stroke-width:0.0529167;stroke-linecap:round;stroke-linejoin:round;stroke-dasharray:none"
           id="rect646"
           width="1.7436297"
           height="0.43590742"
           x="7.8668823"
           y="13.759166"
           rx="0.13229166"
           ry="0.13229166" />
        <circle
           style="fill:#000000;stroke:#ffffff;stroke-width:0.0529167;stroke-linecap:round;stroke-linejoin:round;stroke-dasharray:none"
           id="path1306"
           cx="9.500946"
           cy="14.722584"
           r="0.1095664" />
        <rect
           style="fill:#000000;stroke:#ffffff;stroke-width:0.0529167;stroke-linecap:round;stroke-linejoin:round;stroke-dasharray:none"
           id="rect1308"
           width="1.6526841"
           height="1.8866864"
           x="7.9123554"
           y="15.000696"
           rx="0.13229166"
           ry="0.13229166" />
      </g>
      <rect
         style="fill:#000000;stroke-width:0.513386;stroke-linecap:round;stroke-linejoin:round"
         id="rect2442"
         width="2.3491492"
         height="3.8633268"
         x="7.536624"
         y="13.192607"
         rx="0.52916664"
         ry="0.49807677" />
      <rect
         style="fill:#000000;stroke:#ffffff;stroke-width:0.0529167;stroke-linecap:round;stroke-linejoin:round;stroke-dasharray:none"
         id="rect2444"
         width="1.7436297"
         height="0.43590742"
         x="7.8668823"
         y="13.72051"
         rx="0.13229166"
         ry="0.13229166" />
      <circle
         style="fill:#000000;stroke:#ffffff;stroke-width:0.0529167;stroke-linecap:round;stroke-linejoin:round;stroke-dasharray:none"
         id="circle2446"
         cx="9.500946"
         cy="14.683928"
         r="0.1095664" />
      <rect
         style="fill:#000000;stroke:#ffffff;stroke-width:0.0529167;stroke-linecap:round;stroke-linejoin:round;stroke-dasharray:none"
         id="rect2448"
         width="1.6526841"
         height="1.8866864"
         x="7.9123554"
         y="14.96204"
         rx="0.13229166"
         ry="0.13229166" />
    </g>
  </g>
  <path
     style="fill:none;stroke:#000000;stroke-width:0.450312px;stroke-linecap:butt;stroke-linejoin:miter;stroke-opacity:1"
     d="M 6.9840661,19.541355 H 28.689758"
     id="path2533"
     sodipodi:nodetypes="cc" />
  <g
     id="g2549"
     transform="matrix(1.7019707,0,0,1.7019707,-7.779739,-6.4749941)">
    <path
       style="fill:#ffffff;stroke:none;stroke-width:0.264583px;stroke-linecap:butt;stroke-linejoin:miter;stroke-opacity:1"
       d="m 21.544309,12.435964 0.0142,2.410777 0.06287,0.08103 -0.644515,1.232592 c 0,0 -0.0018,0.231306 0.02272,0.231545 0.02456,2.4e-4 4.589917,-0.0065 4.589917,-0.0065 l 0.07524,-0.284936 -0.54089,-1.053449 -0.216284,-0.148765 0.245092,-0.171162 -0.1041,-2.304607 z"
       id="path2535" />
    <g
       transform="matrix(0.14760103,0,0,0.14760103,16.589599,-0.0012587)"
       id="g2547">
      <g
         transform="matrix(0.33247,0,0,0.33247,28.912,81.732)"
         stroke-width="0.79583"
         id="g2545">
        <g
           stroke-width="0.79583"
           id="g2543">
          <path
             d="m 98.656,80.699 -9.375,-18.5 c -0.521,-1.546 -1.59,-2.9 -2.932,-3.884 1.209,-1.048 1.988,-2.574 1.988,-4.294 V 10.709 C 88.338,7.56 85.776,5 82.631,5 H 17.367 c -3.148,0 -5.708,2.56 -5.708,5.709 v 43.312 c 0,1.721 0.782,3.248 1.989,4.295 -1.34,0.983 -2.408,2.338 -2.929,3.883 L 1.344,80.698 c -0.633,1.877 -0.386,7.751 0.68,9.232 1.064,1.482 2.809,2.332 4.789,2.332 h 86.375 c 1.979,0 3.725,-0.85 4.789,-2.332 1.065,-1.481 1.311,-7.355 0.679,-9.231 z m -5.468,4.345 H 6.812 c -1.915,0 -2.979,-1.485 -2.368,-3.299 l 9.375,-18.498 c 0.614,-1.812 2.678,-3.297 4.592,-3.297 h 63.176 c 1.913,0 3.979,1.484 4.591,3.297 l 9.375,18.498 c 0.612,1.814 -0.453,3.299 -2.365,3.299 z M 14.932,10.709 c 0,-1.344 1.092,-2.436 2.435,-2.436 h 65.264 c 1.342,0 2.436,1.092 2.436,2.436 v 43.312 c 0,1.343 -1.094,2.435 -2.436,2.435 H 17.367 c -1.342,0 -2.435,-1.092 -2.435,-2.435 z"
             id="path2537" />
          <path
             d="m 61.964,72.913 c -0.12,-0.828 -0.937,-1.478 -1.855,-1.478 h -20.22 c -0.92,0 -1.736,0.649 -1.855,1.479 l -1.656,6.943 c -0.062,0.426 0.076,0.852 0.38,1.165 0.302,0.313 0.748,0.494 1.224,0.494 h 24.032 c 0.477,0 0.924,-0.181 1.225,-0.494 0.304,-0.313 0.441,-0.739 0.379,-1.165 z"
             id="path2539" />
          <path
             d="m 20.273,54.055 h 59.453 c 1.831,0 3.329,-1.499 3.329,-3.332 V 14.005 c 0,-1.831 -1.498,-3.33 -3.329,-3.33 H 20.273 c -1.832,0 -3.33,1.499 -3.33,3.33 v 36.718 c 0,1.833 1.498,3.332 3.33,3.332 z"
             id="path2541" />
        </g>
      </g>
    </g>
  </g>
  <g
     id="g3104"
     transform="translate(23.056364,17.163138)">
    <rect
       style="fill:#f6f5f4;stroke:none;stroke-width:0.315219;stroke-linecap:round;stroke-linejoin:round;stroke-dasharray:none"
       id="rect2551"
       width="5.2468867"
       height="3.7384598"
       x="0.89919674"
       y="-14.750809" />
    <rect
       style="fill:#ffffff;stroke:none;stroke-width:0.315219;stroke-linecap:round;stroke-linejoin:round;stroke-dasharray:none"
       id="rect2553"
       width="1.3106692"
       height="1.2626392"
       x="7.3176389"
       y="-9.5791054"
       rx="0.90062612"
       ry="0.84771204" />
    <path
       style="fill:#ffffff;stroke:none;stroke-width:0.450312px;stroke-linecap:butt;stroke-linejoin:miter;stroke-opacity:1"
       d="m 0.8684821,-10.477082 5.2537031,-0.025 0.8445554,1.9431486 -6.91906825,0.012935 z"
       id="path2555" />
    <g
       id="g2583"
       transform="matrix(0.21955233,0,0,0.21955233,-0.1056187,-14.966224)">
      <path
         d="m 4.8679,19.975 c -0.80926,0.2149 -1.3298,0.77731 -1.503,1.291 L 0.248,27.4164 c -0.21045,0.62405 -0.12833,2.577 0.22608,3.0694 0.35375,0.49272 0.93391,0.77532 1.5922,0.77532 h 28.717 c 0.65796,0 1.2385,-0.2826 1.5922,-0.77532 0.35408,-0.49239 0.43587,-2.4453 0.22575,-3.069 l -3.1169,-6.1507 c -0.17322,-0.514 -0.72202,-1.0761 -1.504,-1.2913 -8.057,3.1e-5 -15.056,3.44e-4 -23.113,3.44e-4 z m 25.915,8.8863 H 2.0659 c -0.63668,0 -0.99043,-0.49372 -0.78729,-1.0968 l 3.1169,-6.15 c 0.20414,-0.60244 0.89035,-1.0962 1.5267,-1.0962 h 21.004 c 0.63602,0 1.3229,0.49339 1.5264,1.0962 l 3.1169,6.15 c 0.20347,0.6031 -0.15061,1.0968 -0.78629,1.0968 v 0"
         stroke="#000000"
         stroke-linecap="round"
         stroke-linejoin="round"
         stroke-width="0.26458"
         id="path2557"
         style="fill:#000000" />
      <g
         stroke-width="0.26459"
         id="g2567">
        <path
           d="m 27.222,18.591 c 1.1968,0.04853 1.9487,-0.99607 1.9487,-2.1604 v -14.4 C 29.171034,0.9837 28.31924,0.1325 27.2736,0.1325 H 5.5756 c -1.0466,0 -1.8977,0.85112 -1.8977,1.8981 v 14.4 c 0,1.7766 1.0022,2.1409 1.9489,2.1603 z M 4.765,2.163 c 0,-0.44684 0.36306,-0.8099 0.80956,-0.8099 h 21.698 c 0.44618,0 0.8099,0.36306 0.8099,0.8099 v 14.4 c 0,0.44651 -0.36372,0.80956 -0.8099,0.80956 H 5.57456 C 5.12839,17.37256 4.765,17.0095 4.765,16.563 v -14.4"
           stroke="#000000"
           id="path2559"
           style="fill:#000000" />
        <path
           d="m 30.922,28.326 c 0.19785,-0.07123 0.30678,-0.35274 0.1726,-0.60523 l -3.3674,-6.337 c -0.13447,-0.25304 -0.35647,-0.47742 -0.58114,-0.47575 l -2.2038,-0.01064 c -0.28637,0.05106 -0.29152,0.2723 -0.24636,0.54002 l 1.7542,6.5293 c 0.15446,0.32573 0.34894,0.38934 0.59939,0.39474 z"
           id="path2561" />
        <path
           d="m 6.5411,16.574 h 19.766 c 0.60875,0 1.1068,-0.49837 1.1068,-1.1078 V 3.2582 c 0,-0.60875 -0.49804,-1.1071 -1.1068,-1.1071 H 6.5411 c -0.60908,0 -1.1071,0.49837 -1.1071,1.1071 v 12.208 c 0,0.60942 0.49804,1.1078 1.1071,1.1078 z"
           id="path2563" />
        <path
           d="m 25.63,28.326 c 0.19785,-0.07123 0.24454,-0.3285 0.1726,-0.60523 l -1.6326,-6.281 c -0.07209,-0.27734 -0.35647,-0.5339 -0.58114,-0.53223 H 6.21686 C 5.93049,20.9586 5.5081,21.08577 5.32941,21.40945 l -3.1704,6.4454 c 0.15446,0.32573 0.34894,0.38934 0.59939,0.39474 z"
           id="path2565" />
      </g>
      <g
         transform="matrix(0.14524,0.06144,-0.083735,0.13478,47.264,28.731)"
         stroke-linejoin="round"
         stroke-width="6.3602"
         id="g2581">
        <path
           d="m -92.371,2.9745 c 0.33608,4.6336 1.5796,7.5961 5.0456,11.257 6.526,5.9455 12.989,13.395 14.581,15.888 -1.7296,-12.011 -8.7185,-17.306 -19.627,-27.145 z m 0,0 c 9.5162,9.8373 16.92,12.14 19.627,27.145 3.3767,2.9012 6.7534,4.9335 10.13,5.9356 3.5513,0.58288 6.9983,0.64437 10.13,-0.87055 3.1556,-1.4445 6.4258,-2.7907 8.1516,-5.4608 0.97607,-2.1311 2.5199,-3.1424 1.2663,-8.2307 -2.5527,-9.4994 -7.2641,-18.135 -17.174,-24.692 -4.8435,-2.4039 -9.4585,-5.4553 -15.512,-4.4319 -4.0098,1.1587 -8.5736,3.0405 -12.583,5.4608 -1.735,1.3251 -3.3987,2.5237 -4.0362,5.1442 z"
           fill="none"
           stroke="#000000"
           stroke-width="5.3849"
           id="path2569" />
        <g
           stroke-linecap="round"
           id="g2579">
          <path
             d="m -62.02,-2.2884 c -6.1432,-4.1219 -9.7271,-4.0819 -11.238,-4.3528 -0.86696,0.30365 -1.8915,-0.50149 -7.1227,1.7807 5.8493,2.0378 7.9602,4.3142 12.188,6.9644 z"
             stroke="#000000"
             stroke-width="5.3849"
             id="path2571" />
          <ellipse
             transform="matrix(0.96688,0.25523,0,1,0,0)"
             cx="-79.307999"
             cy="18.309999"
             rx="3.5822999"
             ry="2.4384999"
             stroke="#ffffff"
             stroke-width="5.4764"
             id="ellipse2573" />
          <ellipse
             transform="matrix(0.96707,0.2545,0,1,0,0)"
             cx="-80.125999"
             cy="19.299999"
             rx="3.2939"
             ry="2.2356999"
             stroke="#ffffff"
             stroke-width="5.4758"
             id="ellipse2575" />
          <path
             d="m -90.59,2.5788 c 1.9787,-3.4171 5.8877,-5.657 8.5868,-6.3709 3.4217,0.5585 8.4374,4.1194 12.583,6.6479 -4.6379,2.5223 -8.124,4.6444 -13.177,6.6479 z"
             stroke="#000000"
             stroke-width="5.3849"
             id="path2577" />
        </g>
      </g>
    </g>
    <rect
       style="fill:#ffffff;stroke:none;stroke-width:0.315219;stroke-linecap:round;stroke-linejoin:round;stroke-dasharray:none"
       id="rect2585"
       width="1.3106692"
       height="1.2626392"
       x="7.3176389"
       y="-9.5791054"
       rx="0.90062612"
       ry="0.84771204" />
    <path
       d="m 0.9631401,-10.580666 c -0.17767485,0.04718 -0.29196065,0.17066 -0.3299871,0.283442 l -0.68432276,1.3503346 c -0.0462051,0.1370086 -0.02817443,0.5657861 0.04963627,0.6738936 0.07766603,0.1081772 0.20504203,0.1702243 0.34957117,0.1702243 H 6.6529221 c 0.1444565,0 0.2719155,-0.062054 0.3495712,-0.1702243 0.077739,-0.1081092 0.095697,-0.5368714 0.049563,-0.6738051 L 6.3677346,-10.297202 c -0.038031,-0.112841 -0.1585215,-0.236259 -0.3302066,-0.283508 -1.7689331,7e-6 -3.30558,7.5e-5 -5.074513,7.5e-5 z m 5.6896986,1.9510086 H 0.34795445 c -0.13978456,0 -0.21745127,-0.1083985 -0.17285129,-0.240805 l 0.68432259,-1.3502466 c 0.0448197,-0.13226 0.19547845,-0.240674 0.33519055,-0.240674 h 4.6114772 c 0.1396399,0 0.2904457,0.10833 0.3351246,0.240674 l 0.6843226,1.3502466 c 0.044672,0.1324133 -0.033068,0.240805 -0.1726317,0.240805 v 0"
       stroke="#000000"
       stroke-linecap="round"
       stroke-linejoin="round"
       stroke-width="0.0580891"
       id="path2587"
       style="fill:#000000" />
    <g
       stroke-width="0.26459"
       id="g2597"
       transform="matrix(0.21955233,0,0,0.21955233,-0.1056187,-14.966224)">
      <path
         d="m 27.222,18.591 c 1.1968,0.04853 1.9487,-0.99607 1.9487,-2.1604 v -14.4 C 29.171034,0.9837 28.31924,0.1325 27.2736,0.1325 H 5.5756 c -1.0466,0 -1.8977,0.85112 -1.8977,1.8981 v 14.4 c 0,1.7766 1.0022,2.1409 1.9489,2.1603 z M 4.765,2.163 c 0,-0.44684 0.36306,-0.8099 0.80956,-0.8099 h 21.698 c 0.44618,0 0.8099,0.36306 0.8099,0.8099 v 14.4 c 0,0.44651 -0.36372,0.80956 -0.8099,0.80956 H 5.57456 C 5.12839,17.37256 4.765,17.0095 4.765,16.563 v -14.4"
         stroke="#000000"
         id="path2589"
         style="fill:#000000" />
      <path
         d="m 30.922,28.326 c 0.19785,-0.07123 0.30678,-0.35274 0.1726,-0.60523 l -3.3674,-6.337 c -0.13447,-0.25304 -0.35647,-0.47742 -0.58114,-0.47575 l -2.2038,-0.01064 c -0.28637,0.05106 -0.29152,0.2723 -0.24636,0.54002 l 1.7542,6.5293 c 0.15446,0.32573 0.34894,0.38934 0.59939,0.39474 z"
         id="path2591" />
      <path
         d="m 6.5411,16.574 h 19.766 c 0.60875,0 1.1068,-0.49837 1.1068,-1.1078 V 3.2582 c 0,-0.60875 -0.49804,-1.1071 -1.1068,-1.1071 H 6.5411 c -0.60908,0 -1.1071,0.49837 -1.1071,1.1071 v 12.208 c 0,0.60942 0.49804,1.1078 1.1071,1.1078 z"
         id="path2593" />
      <path
         d="m 25.63,28.326 c 0.19785,-0.07123 0.24454,-0.3285 0.1726,-0.60523 l -1.6326,-6.281 c -0.07209,-0.27734 -0.35647,-0.5339 -0.58114,-0.53223 H 6.21686 C 5.93049,20.9586 5.5081,21.08577 5.32941,21.40945 l -3.1704,6.4454 c 0.15446,0.32573 0.34894,0.38934 0.59939,0.39474 z"
         id="path2595" />
    </g>
    <g
       transform="matrix(0.03188778,0.01348929,-0.01838421,0.02959126,10.271303,-8.6582658)"
       stroke-linejoin="round"
       stroke-width="6.3602"
       id="g2611">
      <path
         d="m -92.371,2.9745 c 0.33608,4.6336 1.5796,7.5961 5.0456,11.257 6.526,5.9455 12.989,13.395 14.581,15.888 -1.7296,-12.011 -8.7185,-17.306 -19.627,-27.145 z m 0,0 c 9.5162,9.8373 16.92,12.14 19.627,27.145 3.3767,2.9012 6.7534,4.9335 10.13,5.9356 3.5513,0.58288 6.9983,0.64437 10.13,-0.87055 3.1556,-1.4445 6.4258,-2.7907 8.1516,-5.4608 0.97607,-2.1311 2.5199,-3.1424 1.2663,-8.2307 -2.5527,-9.4994 -7.2641,-18.135 -17.174,-24.692 -4.8435,-2.4039 -9.4585,-5.4553 -15.512,-4.4319 -4.0098,1.1587 -8.5736,3.0405 -12.583,5.4608 -1.735,1.3251 -3.3987,2.5237 -4.0362,5.1442 z"
         fill="none"
         stroke="#000000"
         stroke-width="5.3849"
         id="path2599" />
      <g
         stroke-linecap="round"
         id="g2609">
        <path
           d="m -62.02,-2.2884 c -6.1432,-4.1219 -9.7271,-4.0819 -11.238,-4.3528 -0.86696,0.30365 -1.8915,-0.50149 -7.1227,1.7807 5.8493,2.0378 7.9602,4.3142 12.188,6.9644 z"
           stroke="#000000"
           stroke-width="5.3849"
           id="path2601" />
        <ellipse
           transform="matrix(0.96688,0.25523,0,1,0,0)"
           cx="-79.307999"
           cy="18.309999"
           rx="3.5822999"
           ry="2.4384999"
           stroke="#ffffff"
           stroke-width="5.4764"
           id="ellipse2603" />
        <ellipse
           transform="matrix(0.96707,0.2545,0,1,0,0)"
           cx="-80.125999"
           cy="19.299999"
           rx="3.2939"
           ry="2.2356999"
           stroke="#ffffff"
           stroke-width="5.4758"
           id="ellipse2605" />
        <path
           d="m -90.59,2.5788 c 1.9787,-3.4171 5.8877,-5.657 8.5868,-6.3709 3.4217,0.5585 8.4374,4.1194 12.583,6.6479 -4.6379,2.5223 -8.124,4.6444 -13.177,6.6479 z"
           stroke="#000000"
           stroke-width="5.3849"
           id="path2607" />
      </g>
    </g>
    <g
       id="g2631"
       transform="matrix(1.7019707,0,0,1.7019707,-16.575235,-39.616568)">
      <rect
         style="fill:#000000;stroke-width:0.513386;stroke-linecap:round;stroke-linejoin:round"
         id="rect2613"
         width="2.3491492"
         height="3.8633268"
         x="7.536624"
         y="13.192607"
         rx="0.52916664"
         ry="0.49807677" />
      <g
         id="g2621"
         transform="translate(0,-0.03865594)">
        <rect
           style="fill:#000000;stroke:#ffffff;stroke-width:0.0529167;stroke-linecap:round;stroke-linejoin:round;stroke-dasharray:none"
           id="rect2615"
           width="1.7436297"
           height="0.43590742"
           x="7.8668823"
           y="13.759166"
           rx="0.13229166"
           ry="0.13229166" />
        <circle
           style="fill:#000000;stroke:#ffffff;stroke-width:0.0529167;stroke-linecap:round;stroke-linejoin:round;stroke-dasharray:none"
           id="circle2617"
           cx="9.500946"
           cy="14.722584"
           r="0.1095664" />
        <rect
           style="fill:#000000;stroke:#ffffff;stroke-width:0.0529167;stroke-linecap:round;stroke-linejoin:round;stroke-dasharray:none"
           id="rect2619"
           width="1.6526841"
           height="1.8866864"
           x="7.9123554"
           y="15.000696"
           rx="0.13229166"
           ry="0.13229166" />
      </g>
      <rect
         style="fill:#000000;stroke-width:0.513386;stroke-linecap:round;stroke-linejoin:round"
         id="rect2623"
         width="2.3491492"
         height="3.8633268"
         x="7.536624"
         y="13.192607"
         rx="0.52916664"
         ry="0.49807677" />
      <rect
         style="fill:#000000;stroke:#ffffff;stroke-width:0.0529167;stroke-linecap:round;stroke-linejoin:round;stroke-dasharray:none"
         id="rect2625"
         width="1.7436297"
         height="0.43590742"
         x="7.8668823"
         y="13.72051"
         rx="0.13229166"
         ry="0.13229166" />
      <circle
         style="fill:#000000;stroke:#ffffff;stroke-width:0.0529167;stroke-linecap:round;stroke-linejoin:round;stroke-dasharray:none"
         id="circle2627"
         cx="9.500946"
         cy="14.683928"
         r="0.1095664" />
      <rect
         style="fill:#000000;stroke:#ffffff;stroke-width:0.0529167;stroke-linecap:round;stroke-linejoin:round;stroke-dasharray:none"
         id="rect2629"
         width="1.6526841"
         height="1.8866864"
         x="7.9123554"
         y="14.96204"
         rx="0.13229166"
         ry="0.13229166" />
    </g>
  </g>
  <path
     style="fill:none;stroke:#000000;stroke-width:0.450312px;stroke-linecap:butt;stroke-linejoin:miter;stroke-opacity:1"
     d="M 6.9840661,19.541355 H 28.689758"
     id="path2635"
     sodipodi:nodetypes="cc" />
  <g
     id="g2977"
     transform="translate(28.138232,18.221471)">
    <rect
       style="fill:#ffffff;stroke-width:0.0572964;stroke-linecap:round;stroke-linejoin:round"
       id="rect2968"
       width="5.7405338"
       height="11.33005"
       x="-27.564894"
       y="-4.8662052" />
    <g
       transform="matrix(0.3093623,0,0,0.3093623,-67.991542,-45.542529)"
       id="g2972"
       inkscape:transform-center-x="3.7826973"
       inkscape:transform-center-y="-0.52231066">
      <path
         transform="scale(0.26458)"
         d="m 494.46,492.2 c -3.1408,1e-5 -5.6699,2.5291 -5.6699,5.6699 v 137.87 c 0,3.1408 2.5291,5.668 5.6699,5.668 h 70.207 c 3.1408,0 5.6699,-2.5272 5.6699,-5.668 v -137.87 c 0,-3.1408 -2.5291,-5.6699 -5.6699,-5.6699 z m 9.6211,10.188 h 50.965 c 3.1408,0 5.668,2.5291 5.668,5.6699 v 10.061 c 0,3.1408 -2.5272,5.6699 -5.668,5.6699 h -50.965 c -3.1408,0 -5.668,-2.5291 -5.668,-5.6699 v -10.061 c 0,-3.1408 2.5272,-5.6699 5.668,-5.6699 z m 0,30.787 h 50.965 c 3.1408,0 5.668,2.5272 5.668,5.668 v 10.061 c 0,3.1408 -2.5272,5.6699 -5.668,5.6699 h -50.965 c -3.1408,0 -5.668,-2.5291 -5.668,-5.6699 v -10.061 c 0,-3.1408 2.5272,-5.668 5.668,-5.668 z m 0,30.789 h 50.965 c 3.1408,0 5.668,2.5291 5.668,5.6699 v 10.061 c 0,3.1408 -2.5272,5.668 -5.668,5.668 h -50.965 c -3.1408,0 -5.668,-2.5272 -5.668,-5.668 v -10.061 c 0,-3.1408 2.5272,-5.6699 5.668,-5.6699 z m 0,30.785 h 50.965 c 3.1408,0 5.668,2.5291 5.668,5.6699 v 10.061 c 0,3.1408 -2.5272,5.668 -5.668,5.668 h -50.965 c -3.1408,0 -5.668,-2.5272 -5.668,-5.668 v -10.061 c 0,-3.1408 2.5272,-5.6699 5.668,-5.6699 z m 25.482,27.773 a 5.4917,5.4917 0 0 1 5.4922,5.4902 5.4917,5.4917 0 0 1 -5.4922,5.4922 5.4917,5.4917 0 0 1 -5.4922,-5.4922 5.4917,5.4917 0 0 1 5.4922,-5.4902 z"
         fill-opacity="0.87059"
         stroke="#000000"
         stroke-linecap="square"
         stroke-width="3.7797"
         id="path2970" />
    </g>
  </g>
  <path
     style="fill:none;stroke:#000000;stroke-width:0.450312px;stroke-linecap:butt;stroke-linejoin:miter;stroke-opacity:1"
     d="M 6.9023436,19.471997 15.713979,4.5768669 h 3.821216"
     id="path2979"
     sodipodi:nodetypes="ccc"
     inkscape:transform-center-x="-4.7761424"
     inkscape:transform-center-y="-9.8526668" />
  <path
     style="fill:none;stroke:#000000;stroke-width:0.450312px;stroke-linecap:butt;stroke-linejoin:miter;stroke-opacity:1"
     d="m 6.9023436,19.512962 8.8116354,14.89513 h 3.821216"
     id="path3149"
     sodipodi:nodetypes="ccc"
     inkscape:transform-center-x="-4.7761424"
     inkscape:transform-center-y="9.8526666" />
</svg>
