<?xml version="1.0" encoding="UTF-8"?>
<!-- Created with Inkscape (http://www.inkscape.org/) -->
<svg width="40.725mm" height="11.654mm" version="1.1" viewBox="0 0 40.725 11.654" xmlns="http://www.w3.org/2000/svg" xmlns:cc="http://creativecommons.org/ns#" xmlns:dc="http://purl.org/dc/elements/1.1/" xmlns:rdf="http://www.w3.org/1999/02/22-rdf-syntax-ns#">
 <metadata>
  <rdf:RDF>
   <cc:Work rdf:about="">
    <dc:format>image/svg+xml</dc:format>
    <dc:type rdf:resource="http://purl.org/dc/dcmitype/StillImage"/>
    <dc:title/>
   </cc:Work>
  </rdf:RDF>
 </metadata>
 <g transform="translate(-130.48 -157.48)">
  <path transform="matrix(.26458 0 0 .26458 128.83 147.63)" d="m8.1504 39.104v40.266h150.14v-40.266zm19.072 7.623c5.7105 0 5.7656 3.9102 5.7656 3.9102h5.7656v21.109h-23.064v-21.109h5.7656s0.05705-3.9102 5.7676-3.9102zm28 0c5.7105 0 5.7656 3.9102 5.7656 3.9102h5.7656v21.109h-23.064v-21.109h5.7656s0.05705-3.9102 5.7676-3.9102zm28 0c5.7105 0 5.7656 3.9102 5.7656 3.9102h5.7676v21.109h-23.066v-21.109h5.7656s0.05705-3.9102 5.7676-3.9102zm28 0c5.7104 0 5.7656 3.9102 5.7656 3.9102h5.7676v21.109h-23.066v-21.109h5.7656s0.0571-3.9102 5.7676-3.9102zm28 0c5.7104 0 5.7656 3.9102 5.7656 3.9102h5.7676v21.109h-23.066v-21.109h5.7656s0.0571-3.9102 5.7676-3.9102z" stroke="#000" stroke-linecap="square" stroke-linejoin="round" stroke-width="3.7795"/>
 </g>
</svg>
